<?xml version="1.0" encoding="utf-8"?>
<!-- Generator: Adobe Illustrator 17.0.0, SVG Export Plug-In . SVG Version: 6.00 Build 0)  -->
<!DOCTYPE svg PUBLIC "-//W3C//DTD SVG 1.1//EN" "http://www.w3.org/Graphics/SVG/1.1/DTD/svg11.dtd">
<svg version="1.1" id="Layer_1" xmlns="http://www.w3.org/2000/svg" xmlns:xlink="http://www.w3.org/1999/xlink" x="0px" y="0px"
	 width="40px" height="40px" viewBox="0 0 40 40" enable-background="new 0 0 40 40" xml:space="preserve">
<g>
	<path fill="#EC1C24" d="M39,20c0,10.493-8.507,19-19,19C9.507,39,1,30.493,1,20C1,9.507,9.507,1,20,1C30.493,1,39,9.507,39,20"/>
	<g>
		<rect x="10.56" y="20.161" fill="#FFFFFF" width="2.638" height="0.688"/>
		<path fill="#FFFFFF" d="M16.367,19.553c0.393,0,0.671-0.097,0.834-0.293c0.162-0.195,0.244-0.469,0.244-0.821
			c0-0.328-0.089-0.592-0.266-0.794c-0.177-0.201-0.44-0.302-0.789-0.302c-0.34,0-0.621,0.105-0.843,0.315
			c-0.222,0.21-0.333,0.473-0.333,0.789h-0.841l-0.013-0.027c-0.015-0.489,0.17-0.906,0.554-1.252
			c0.385-0.346,0.876-0.519,1.476-0.519c0.605,0,1.079,0.153,1.422,0.458c0.343,0.306,0.514,0.755,0.514,1.348
			c0,0.304-0.08,0.581-0.239,0.832c-0.16,0.25-0.382,0.445-0.669,0.586c0.328,0.131,0.578,0.33,0.749,0.597
			c0.172,0.267,0.257,0.59,0.257,0.968c0,0.596-0.189,1.063-0.566,1.402c-0.377,0.338-0.867,0.508-1.469,0.508
			c-0.554,0-1.043-0.163-1.464-0.49c-0.422-0.326-0.625-0.758-0.61-1.294l0.009-0.027h0.84c0,0.316,0.114,0.582,0.342,0.798
			c0.228,0.216,0.522,0.324,0.883,0.324c0.358,0,0.639-0.111,0.845-0.333c0.205-0.222,0.309-0.512,0.309-0.87
			c0-0.408-0.095-0.714-0.284-0.916c-0.189-0.203-0.487-0.304-0.892-0.304h-0.724v-0.685H16.367z"/>
		<path fill="#FFFFFF" d="M23.068,20.957c0,0.736-0.187,1.319-0.561,1.748c-0.374,0.429-0.877,0.644-1.509,0.644
			c-0.629,0-1.132-0.215-1.509-0.644c-0.377-0.429-0.565-1.012-0.565-1.748v-1.914c0-0.73,0.187-1.312,0.561-1.744
			c0.374-0.432,0.876-0.648,1.505-0.648c0.632,0,1.137,0.216,1.514,0.648c0.377,0.432,0.565,1.014,0.565,1.744V20.957z
			 M22.187,18.86c0-0.468-0.104-0.838-0.313-1.109c-0.209-0.272-0.504-0.407-0.885-0.407c-0.379,0-0.67,0.136-0.876,0.407
			c-0.206,0.271-0.309,0.641-0.309,1.109v2.276c0,0.468,0.105,0.839,0.315,1.114c0.21,0.274,0.503,0.411,0.879,0.411
			c0.381,0,0.675-0.137,0.881-0.409c0.206-0.273,0.309-0.644,0.309-1.116V18.86z"/>
		<path fill="#FFFFFF" d="M23.596,17.997c0-0.378,0.122-0.698,0.367-0.957c0.244-0.259,0.571-0.389,0.979-0.389
			s0.735,0.129,0.979,0.386c0.244,0.258,0.367,0.578,0.367,0.959v0.344c0,0.378-0.122,0.696-0.365,0.952
			c-0.243,0.256-0.567,0.384-0.972,0.384c-0.411,0-0.74-0.128-0.986-0.384c-0.246-0.256-0.369-0.574-0.369-0.952V17.997z
			 M24.249,18.341c0,0.221,0.06,0.407,0.181,0.561c0.121,0.154,0.295,0.23,0.521,0.23c0.217,0,0.386-0.076,0.505-0.228
			c0.119-0.152,0.179-0.34,0.179-0.563v-0.344c0-0.221-0.061-0.409-0.181-0.566c-0.121-0.156-0.291-0.235-0.512-0.235
			c-0.223,0-0.395,0.078-0.514,0.235c-0.119,0.156-0.179,0.345-0.179,0.566V18.341z M25.179,22.763l-0.487-0.299l3.179-5.089
			l0.487,0.299L25.179,22.763z M26.748,21.659c0-0.379,0.122-0.697,0.367-0.955c0.244-0.258,0.571-0.386,0.979-0.386
			c0.405,0,0.731,0.129,0.977,0.386c0.246,0.258,0.369,0.576,0.369,0.955v0.349c0,0.381-0.122,0.7-0.367,0.957
			c-0.244,0.256-0.568,0.385-0.97,0.385c-0.411,0-0.74-0.128-0.986-0.385c-0.246-0.256-0.369-0.575-0.369-0.957V21.659z
			 M27.401,22.008c0,0.224,0.061,0.412,0.181,0.566c0.121,0.154,0.294,0.23,0.521,0.23c0.218,0,0.386-0.077,0.505-0.23
			c0.119-0.153,0.179-0.342,0.179-0.566v-0.349c0-0.221-0.061-0.408-0.183-0.563c-0.122-0.155-0.292-0.233-0.51-0.233
			c-0.221,0-0.391,0.077-0.512,0.233c-0.121,0.155-0.181,0.342-0.181,0.563V22.008z"/>
	</g>
</g>
</svg>
