<svg xmlns="http://www.w3.org/2000/svg" width="26.655" height="24.567" viewBox="0 0 26.655 24.567">
  <g id="audio" transform="translate(0 -20.052)">
    <g id="Group_4882" data-name="Group 4882" transform="translate(17.565 20.052)">
      <g id="Group_4881" data-name="Group 4881" transform="translate(0 0)">
        <path id="Path_3843" data-name="Path 3843" d="M338.491,20.118a.781.781,0,0,0-.625,1.431,11.771,11.771,0,0,1,0,21.574.781.781,0,1,0,.625,1.431,13.333,13.333,0,0,0,0-24.436Z" transform="translate(-337.397 -20.052)" fill="#fff"/>
      </g>
    </g>
    <g id="Group_4884" data-name="Group 4884" transform="translate(17.566 25.944)">
      <g id="Group_4883" data-name="Group 4883">
        <path id="Path_3844" data-name="Path 3844" d="M338.71,133.428a.781.781,0,0,0-1.042,1.164,6.747,6.747,0,0,1,0,10.057.781.781,0,1,0,1.042,1.164,8.309,8.309,0,0,0,0-12.385Z" transform="translate(-337.408 -133.229)" fill="#fff"/>
      </g>
    </g>
    <g id="Group_4886" data-name="Group 4886" transform="translate(0 21.936)">
      <g id="Group_4885" data-name="Group 4885">
        <path id="Path_3845" data-name="Path 3845" d="M13.68,56.317a.781.781,0,0,0-.815.067L6.8,60.833H.781A.781.781,0,0,0,0,61.613V71.651a.781.781,0,0,0,.781.781H6.8l6.067,4.449a.781.781,0,0,0,1.243-.63V57.013A.781.781,0,0,0,13.68,56.317ZM12.546,74.71,7.516,71.021a.781.781,0,0,0-.462-.151H1.562V62.394H7.054a.781.781,0,0,0,.462-.151l5.031-3.689Z" transform="translate(0 -56.232)" fill="#fff"/>
      </g>
    </g>
  </g>
</svg>
