<svg id="bell" xmlns="http://www.w3.org/2000/svg" width="26.587" height="29.004" viewBox="0 0 26.587 29.004">
  <path id="Path_3846" data-name="Path 3846" d="M370.464,35.477a.907.907,0,0,1-.906-.906,12.909,12.909,0,0,0-3.8-9.187.907.907,0,1,1,1.282-1.282,14.712,14.712,0,0,1,4.335,10.469A.907.907,0,0,1,370.464,35.477Zm0,0" transform="translate(-344.784 -22.486)" fill="#279760"/>
  <path id="Path_3847" data-name="Path 3847" d="M.906,35.5A.907.907,0,0,1,0,34.589,14.7,14.7,0,0,1,4.336,24.121.907.907,0,0,1,5.618,25.4a12.9,12.9,0,0,0-3.806,9.186A.907.907,0,0,1,.906,35.5Zm0,0" transform="translate(0 -22.504)" fill="#279760"/>
  <path id="Path_3848" data-name="Path 3848" d="M159.2,421.438a4.537,4.537,0,0,1-4.532-4.532.906.906,0,1,1,1.813,0,2.719,2.719,0,0,0,5.438,0,.906.906,0,1,1,1.813,0A4.537,4.537,0,0,1,159.2,421.438Zm0,0" transform="translate(-145.906 -392.435)" fill="#279760"/>
  <path id="Path_3849" data-name="Path 3849" d="M43.387,85.753H23.447a2.115,2.115,0,0,1-1.375-3.722,8.1,8.1,0,0,0,2.886-6.2V72.459a8.459,8.459,0,0,1,16.919,0v3.369a8.1,8.1,0,0,0,2.874,6.193,2.114,2.114,0,0,1-1.363,3.731Zm-9.97-19.94a6.654,6.654,0,0,0-6.647,6.647v3.369a9.9,9.9,0,0,1-3.517,7.577.3.3,0,0,0-.109.232.306.306,0,0,0,.3.3h19.94a.305.305,0,0,0,.3-.3.3.3,0,0,0-.106-.23,9.907,9.907,0,0,1-3.519-7.58V72.459A6.654,6.654,0,0,0,33.417,65.813Zm0,0" transform="translate(-20.124 -60.375)" fill="#279760"/>
  <path id="Path_3850" data-name="Path 3850" d="M219.574,5.438a.907.907,0,0,1-.906-.906V.906a.906.906,0,1,1,1.813,0V4.532A.907.907,0,0,1,219.574,5.438Zm0,0" transform="translate(-206.281)" fill="#279760"/>
</svg>
