<svg id="global" xmlns="http://www.w3.org/2000/svg" width="28.945" height="28.995" viewBox="0 0 28.945 28.995">
  <path id="Path_214" data-name="Path 214" d="M186.71,4.721A15.953,15.953,0,0,0,184.024.037Q183.508,0,182.985,0t-1.039.037a15.941,15.941,0,0,0-2.686,4.684q-.351.912-.632,1.887h8.713Q187.061,5.635,186.71,4.721Zm0,0" transform="translate(-168.513 0)" fill="#87aedb"/>
  <path id="Path_215" data-name="Path 215" d="M160.64,276.341H170.2a29.24,29.24,0,0,0,.628-5.341H160.012A29.239,29.239,0,0,0,160.64,276.341Zm0,0" transform="translate(-150.95 -255.653)" fill="#87aedb"/>
  <path id="Path_216" data-name="Path 216" d="M170.2,146.684H160.64a29.242,29.242,0,0,0-.628,5.341h10.821A29.238,29.238,0,0,0,170.2,146.684Zm0,0" transform="translate(-150.95 -138.377)" fill="#87aedb"/>
  <path id="Path_217" data-name="Path 217" d="M179.26,397.2a15.954,15.954,0,0,0,2.686,4.684q.516.036,1.039.037t1.039-.037a15.945,15.945,0,0,0,2.686-4.684q.351-.912.632-1.887h-8.713Q178.909,396.289,179.26,397.2Zm0,0" transform="translate(-168.513 -372.929)" fill="#87aedb"/>
  <path id="Path_218" data-name="Path 218" d="M370.594,146.661a31.131,31.131,0,0,1,.6,5.341h7.362a14.4,14.4,0,0,0-1.355-5.343h-6.6Zm0,0" transform="translate(-349.607 -138.355)" fill="#87aedb"/>
  <path id="Path_219" data-name="Path 219" d="M7.958,276.341a31.107,31.107,0,0,1-.6-5.341H0a14.4,14.4,0,0,0,1.355,5.343h6.6Zm0,0" transform="translate(0 -255.653)" fill="#87aedb"/>
  <path id="Path_220" data-name="Path 220" d="M318.874,395.316a21.405,21.405,0,0,1-2.682,6.2,14.4,14.4,0,0,0,6.817-3.839,14.628,14.628,0,0,0,1.916-2.362Zm0,0" transform="translate(-298.285 -372.929)" fill="#87aedb"/>
  <path id="Path_221" data-name="Path 221" d="M46.754,13.4a21.411,21.411,0,0,1,2.682-6.2,14.408,14.408,0,0,0-6.817,3.839A14.639,14.639,0,0,0,40.7,13.4Zm0,0" transform="translate(-38.398 -6.792)" fill="#87aedb"/>
  <path id="Path_222" data-name="Path 222" d="M46.754,395.316H40.7a14.639,14.639,0,0,0,1.916,2.362,14.407,14.407,0,0,0,6.817,3.839A21.417,21.417,0,0,1,46.754,395.316Zm0,0" transform="translate(-38.398 -372.929)" fill="#87aedb"/>
  <path id="Path_223" data-name="Path 223" d="M318.874,13.4h6.051a14.629,14.629,0,0,0-1.916-2.362A14.407,14.407,0,0,0,316.191,7.2,21.4,21.4,0,0,1,318.874,13.4Zm0,0" transform="translate(-298.285 -6.792)" fill="#87aedb"/>
  <path id="Path_224" data-name="Path 224" d="M371.189,271a31.109,31.109,0,0,1-.6,5.341h6.6A14.4,14.4,0,0,0,378.551,271Zm0,0" transform="translate(-349.607 -255.653)" fill="#87aedb"/>
  <path id="Path_225" data-name="Path 225" d="M7.362,152a31.107,31.107,0,0,1,.6-5.341h-6.6A14.4,14.4,0,0,0,0,152Zm0,0" transform="translate(0 -138.355)" fill="#87aedb"/>
</svg>
