<svg xmlns="http://www.w3.org/2000/svg" xmlns:xlink="http://www.w3.org/1999/xlink" width="215.937" height="173.097" viewBox="0 0 215.937 173.097">
  <defs>
    <linearGradient id="linear-gradient" x1="-0.119" y1="0.498" x2="1.108" y2="0.502" gradientUnits="objectBoundingBox">
      <stop offset="0" stop-color="#45e7ff"/>
      <stop offset="1" stop-color="#ec008c"/>
    </linearGradient>
    <linearGradient id="linear-gradient-2" x1="-0.138" y1="0.498" x2="1.126" y2="0.502" xlink:href="#linear-gradient"/>
    <linearGradient id="linear-gradient-3" x1="-0.158" y1="0.498" x2="1.144" y2="0.502" xlink:href="#linear-gradient"/>
    <linearGradient id="linear-gradient-4" x1="-0.179" y1="0.498" x2="1.164" y2="0.502" xlink:href="#linear-gradient"/>
    <linearGradient id="linear-gradient-5" x1="-0.202" y1="0.498" x2="1.186" y2="0.502" xlink:href="#linear-gradient"/>
    <linearGradient id="linear-gradient-6" x1="-0.226" y1="0.498" x2="1.208" y2="0.502" xlink:href="#linear-gradient"/>
    <linearGradient id="linear-gradient-7" x1="-0.252" y1="0.498" x2="1.232" y2="0.502" xlink:href="#linear-gradient"/>
    <linearGradient id="linear-gradient-8" x1="-0.28" y1="0.498" x2="1.258" y2="0.502" xlink:href="#linear-gradient"/>
    <linearGradient id="linear-gradient-9" x1="-0.31" y1="0.498" x2="1.285" y2="0.502" xlink:href="#linear-gradient"/>
    <linearGradient id="linear-gradient-10" x1="-0.342" y1="0.498" x2="1.314" y2="0.502" xlink:href="#linear-gradient"/>
    <linearGradient id="linear-gradient-11" x1="-0.375" y1="0.498" x2="1.343" y2="0.502" xlink:href="#linear-gradient"/>
    <linearGradient id="linear-gradient-12" x1="-0.387" y1="0.498" x2="1.362" y2="0.502" xlink:href="#linear-gradient"/>
    <linearGradient id="linear-gradient-13" x1="-0.398" y1="0.498" x2="1.382" y2="0.502" xlink:href="#linear-gradient"/>
    <linearGradient id="linear-gradient-14" x1="-0.407" y1="0.498" x2="1.395" y2="0.502" xlink:href="#linear-gradient"/>
    <linearGradient id="linear-gradient-15" x1="-0.414" y1="0.498" x2="1.401" y2="0.502" xlink:href="#linear-gradient"/>
    <linearGradient id="linear-gradient-16" x1="-0.42" y1="0.498" x2="1.405" y2="0.502" xlink:href="#linear-gradient"/>
    <linearGradient id="linear-gradient-17" x1="-0.426" y1="0.498" x2="1.408" y2="0.502" xlink:href="#linear-gradient"/>
    <linearGradient id="linear-gradient-18" x1="-0.432" y1="0.498" x2="1.411" y2="0.502" xlink:href="#linear-gradient"/>
    <linearGradient id="linear-gradient-19" x1="-0.438" y1="0.498" x2="1.414" y2="0.502" xlink:href="#linear-gradient"/>
    <linearGradient id="linear-gradient-20" x1="-0.444" y1="0.498" x2="1.416" y2="0.502" xlink:href="#linear-gradient"/>
    <linearGradient id="linear-gradient-21" x1="-0.449" y1="0.498" x2="1.419" y2="0.502" xlink:href="#linear-gradient"/>
  </defs>
  <g id="Group_4367" data-name="Group 4367" opacity="0.816">
    <g id="Group_2" data-name="Group 2" transform="translate(0 0)">
      <path id="Path_10" data-name="Path 10" d="M112.14,188.137a13.838,13.838,0,0,1-3.518-.478c-4.351-1.145-6.147-4.023-7.884-6.811-1.33-2.132-2.584-4.145-4.9-5.461a11.365,11.365,0,0,0-5.054-1.36c-2.163-.2-4.2-.393-6.387-3.094a12.412,12.412,0,0,1-1.965-4.419,11.83,11.83,0,0,0-2.022-4.46c-4.272-5.005-9.685-3.705-15.415-2.328a43.992,43.992,0,0,1-6.511,1.225c-6.565.534-11.416-1.145-14.423-4.988-5.563-7.115-3.6-20.294-.234-29.419l.195.069-.195-.069a3.891,3.891,0,0,0-.1-3.443c-1.652-2.873-7.759-4.073-14.223-5.345C19.89,115.862,9,113.722,8.177,105.559,7.085,94.728,18.159,90.987,27.929,87.688,33.907,85.669,39.068,83.927,40.4,80.9a4.548,4.548,0,0,0-.257-3.874c-1.446-3.114-2.657-6.106-1.638-8.473.717-1.665,2.431-2.931,5.4-3.982a21.612,21.612,0,0,1,8.409-.827c3.6.138,7.011.271,10.7-2.149a17.925,17.925,0,0,0,8.11-14.979,25.228,25.228,0,0,0-.8-5.42c-.915-4.029-1.7-7.51,3.278-11.05,3.538-2.511,8.347-.708,12.591.885,3.117,1.17,6.06,2.27,7.734,1.283,1.629-.968,2.42-2.873,3.188-4.717,1.1-2.638,2.132-5.127,5.467-4.35,2.18.512,3.185,2.724,4.154,4.861,1.223,2.693,2.488,5.47,6.071,5.254,4.758-.3,8.725-4.751,12.56-9.059,2.812-3.158,5.469-6.142,8.434-7.638,9.612-4.85,17.707,1.927,22.078,9.888a41.528,41.528,0,0,1,3.067,7.74c1.748,5.533,3.129,9.9,11.06,10.842a11.791,11.791,0,0,0,4.7-.5c1.7-.448,3.047-.807,4.4.65,1.121,1.214-.071,3.044-1.333,4.983-1.028,1.579-2.092,3.21-1.8,4.43a1.92,1.92,0,0,0,.974,1.2c.768.462,3.035-.346,5.227-1.125,2.64-.937,5.133-1.822,6.054-1,2.073,1.844.9,5.19-.133,8.144a25.966,25.966,0,0,0-.8,2.519c-1.954,8.362.683,9.493,5.938,11.744a48,48,0,0,1,7.285,3.694,36.279,36.279,0,0,0,6.2,2.649c7.39,2.71,17.5,6.418,17.326,15.455-.2,10.01-9.959,13.337-17.8,16.008-3.436,1.172-6.686,2.279-8.539,3.769-7.124,5.73-7.087,9.626-7.022,16.077.014,1.5.031,3.2-.045,5.066-.246,5.906-5.277,6.3-10.6,6.731-3.346.265-6.805.542-9.3,2.185-3.146,2.077-3.146,7.673-3.146,13.085,0,6.017,0,12.239-4.343,13.832-3.391,1.239-6.751.011-10-1.178-3.549-1.3-6.9-2.522-10.306-.827a40.913,40.913,0,0,1-6.043,2.276,29.876,29.876,0,0,0-8.875,3.957c-1.389,1-2.7,2.11-3.97,3.191C120.436,185.208,116.994,188.137,112.14,188.137ZM72.546,158.09a10.089,10.089,0,0,1,8.175,3.7,12.066,12.066,0,0,1,2.1,4.607,12.119,12.119,0,0,0,1.892,4.281c2.075,2.566,3.939,2.74,6.1,2.942a11.93,11.93,0,0,1,5.227,1.413c2.411,1.369,3.753,3.52,5.049,5.6,1.694,2.718,3.448,5.528,7.638,6.628,6.616,1.737,10.707-1.745,15.042-5.431,1.273-1.087,2.592-2.207,4-3.213a30.325,30.325,0,0,1,8.991-4.015,40.657,40.657,0,0,0,5.986-2.251c3.564-1.778,7.161-.462,10.64.81,3.179,1.161,6.466,2.364,9.711,1.178,4.077-1.493,4.077-7.574,4.077-13.453,0-5.519,0-11.224,3.326-13.42,2.584-1.7,6.1-1.985,9.5-2.256,5.362-.426,9.993-.794,10.222-6.338.076-1.858.059-3.553.045-5.047-.065-6.576-.1-10.544,7.175-16.395,1.909-1.537,5.193-2.655,8.666-3.838,7.72-2.633,17.326-5.907,17.521-15.635.175-8.749-9.784-12.4-17.055-15.065a36.408,36.408,0,0,1-6.283-2.691,47.051,47.051,0,0,0-7.22-3.661c-5.294-2.267-8.208-3.517-6.181-12.208.181-.76.486-1.634.81-2.561.994-2.834,2.118-6.048.246-7.712-.731-.65-3.338.271-5.63,1.087-2.392.849-4.651,1.645-5.585,1.092a2.328,2.328,0,0,1-1.161-1.454c-.33-1.385.782-3.089,1.855-4.74,1.177-1.8,2.287-3.506,1.375-4.491-1.177-1.272-2.293-.979-3.981-.531a12.28,12.28,0,0,1-4.86.514c-8.2-.971-9.612-5.453-11.4-11.127a41.166,41.166,0,0,0-3.038-7.668c-2.073-3.78-9.756-15.654-21.522-9.717-2.894,1.457-5.526,4.413-8.31,7.541-3.891,4.372-7.918,8.89-12.848,9.2-3.877.241-5.2-2.671-6.475-5.492-.971-2.143-1.889-4.17-3.871-4.632-3-.7-3.916,1.526-4.987,4.106-.793,1.905-1.612,3.877-3.357,4.911-1.85,1.1-4.744.008-8.1-1.25-4.145-1.557-8.847-3.321-12.2-.935-4.761,3.382-4.035,6.581-3.117,10.632a25.468,25.468,0,0,1,.813,5.506,18.32,18.32,0,0,1-8.293,15.319c-3.8,2.491-7.438,2.353-10.95,2.218a21.27,21.27,0,0,0-8.254.8c-2.81,1-4.5,2.226-5.156,3.758-.952,2.215.229,5.118,1.632,8.149a4.9,4.9,0,0,1,.26,4.2c-1.4,3.188-6.641,4.958-12.712,7.01C18.439,91.321,7.531,95.007,8.59,105.518c.793,7.864,11.523,9.977,20.988,11.838,6.845,1.347,12.755,2.508,14.5,5.544a4.319,4.319,0,0,1,.13,3.78c-3.332,9.026-5.286,22.05.175,29.035,2.914,3.728,7.647,5.356,14.059,4.828a43.172,43.172,0,0,0,6.446-1.214A33.784,33.784,0,0,1,72.546,158.09Z" transform="translate(-8.102 -15.04)" fill="url(#linear-gradient)"/>
    </g>
    <g id="Group_3" data-name="Group 3" transform="translate(3.229 1.162)">
      <path id="Path_11" data-name="Path 11" d="M110.594,186.148a13.955,13.955,0,0,1-3.38-.434c-4.159-1.033-6.017-3.652-7.813-6.183-1.375-1.937-2.674-3.766-4.936-4.978a11.909,11.909,0,0,0-4.879-1.3c-2.112-.224-4.108-.434-6.254-2.906a12.51,12.51,0,0,1-2.081-4.078,12.032,12.032,0,0,0-2.146-4.13c-4.21-4.636-9.406-3.652-14.906-2.608a43.466,43.466,0,0,1-6.24.873c-6.232.251-10.914-1.522-13.924-5.269-6.774-8.426-3.007-23.76-1.689-28.257a4.283,4.283,0,0,0-.3-3.52c-1.711-2.942-7.359-4.4-13.336-5.945-8.728-2.254-18.622-4.81-19.387-12.714C8.308,94.364,18.332,90.3,27.176,86.717,34.591,83.711,41,81.114,38.8,75.494c-2.121-5.421-3.075-9.468,3.987-12.228h0a21.245,21.245,0,0,1,7.858-1.119c3.374-.036,6.559-.072,10.016-2.39A17.988,17.988,0,0,0,68.676,45.6a24.526,24.526,0,0,0-.483-4.978c-.641-3.8-1.194-7.084,3.516-10.413,3.355-2.368,7.87-.87,11.851.45,2.979.986,5.794,1.917,7.466.953,1.553-.906,2.361-2.649,3.14-4.332,1.129-2.434,2.191-4.735,5.345-4.089,2.084.425,3.112,2.381,4.106,4.277,1.251,2.376,2.555,4.832,5.918,4.6,4.557-.329,8.417-4.349,12.15-8.236,2.759-2.873,5.365-5.589,8.251-6.954,7.748-3.658,15.725-.3,21.344,9a40.156,40.156,0,0,1,3.157,6.957c1.914,5.117,3.425,9.159,10.916,10.12a11.755,11.755,0,0,0,4.388-.362c1.652-.373,2.956-.669,4.275.685,1.107,1.135.073,2.912-.923,4.625-1.214,2.089-2.361,4.061-.418,5.216.779.461,2.908-.21,4.967-.862,2.474-.779,4.809-1.517,5.732-.724,2.106,1.821,1.282,5.028.553,7.863-.22.859-.429,1.669-.534,2.373-1.18,7.9,1.545,9.244,6.489,11.686a47.494,47.494,0,0,1,6.859,3.934,38.428,38.428,0,0,0,6,3.031c6.847,3.034,16.228,7.191,16.174,16.029-.068,9.744-8.889,13.609-15.979,16.715-3.171,1.39-6.167,2.7-7.974,4.338-6.633,6-6.811,9.985-7.107,16.6-.062,1.392-.127,2.837-.254,4.456-.449,5.606-5.213,6.2-10.256,6.829-3.109.39-6.325.79-8.694,2.393-3.061,2.083-3.321,7.291-3.575,12.327-.282,5.628-.573,11.449-4.8,13.048-3.259,1.229-6.511.216-9.654-.765-3.422-1.069-6.655-2.078-9.939-.481a42.48,42.48,0,0,1-5.952,2.2,31.327,31.327,0,0,0-8.556,3.669c-1.33.892-2.595,1.887-3.82,2.848C118.751,183.451,115.318,186.148,110.594,186.148ZM70.9,158.288a10.759,10.759,0,0,1,8.491,3.594,12.359,12.359,0,0,1,2.219,4.255,12.1,12.1,0,0,0,2.013,3.959c2.047,2.357,3.88,2.55,6,2.774a12.292,12.292,0,0,1,5.026,1.348,15.161,15.161,0,0,1,5.066,5.1c1.756,2.473,3.572,5.031,7.587,6.031,6.393,1.583,10.476-1.622,14.8-5.017,1.231-.964,2.5-1.964,3.846-2.865a31.625,31.625,0,0,1,8.655-3.721,41.727,41.727,0,0,0,5.9-2.172c3.428-1.669,6.887-.586,10.23.459,3.078.961,6.263,1.956,9.4.774,3.993-1.511,4.278-7.205,4.555-12.714.257-5.128.522-10.429,3.739-12.62,2.451-1.655,5.712-2.064,8.869-2.456,4.882-.611,9.493-1.185,9.917-6.484.127-1.611.192-3.053.254-4.442.3-6.708.48-10.755,7.231-16.858,1.855-1.677,4.877-3,8.079-4.4,7.35-3.221,15.683-6.871,15.748-16.372.054-8.589-8.816-12.524-15.943-15.681a38.261,38.261,0,0,1-6.068-3.069,47.257,47.257,0,0,0-6.805-3.9c-4.939-2.44-7.918-3.912-6.7-12.081.107-.721.319-1.542.542-2.412.7-2.727,1.494-5.818-.435-7.484-.757-.652-3.2.122-5.357.8-2.239.707-4.354,1.379-5.286.826-2.267-1.348-.912-3.677.282-5.73.969-1.669,1.886-3.243.977-4.177-1.166-1.2-2.313-.937-3.905-.575a12.378,12.378,0,0,1-4.526.367c-7.723-.992-9.27-5.128-11.23-10.363a39.45,39.45,0,0,0-3.126-6.9c-5.506-9.109-13.3-12.419-20.842-8.852-2.821,1.332-5.4,4.023-8.138,6.871-3.784,3.94-7.695,8.015-12.4,8.352-3.643.235-4.984-2.318-6.291-4.8-1-1.9-1.937-3.691-3.84-4.078-2.849-.583-3.8,1.481-4.913,3.871-.8,1.738-1.638,3.536-3.3,4.5-1.824,1.058-4.721.1-7.788-.92-3.894-1.29-8.307-2.754-11.5-.5-4.515,3.191-4,6.216-3.357,10.045a24.709,24.709,0,0,1,.486,5.053A18.356,18.356,0,0,1,60.877,60.07c-3.552,2.384-6.946,2.423-10.227,2.456a20.915,20.915,0,0,0-7.72,1.094c-6.749,2.636-5.873,6.36-3.77,11.739,2.335,5.965-4.233,8.625-11.837,11.709-8.72,3.534-18.6,7.54-17.62,17.59.74,7.642,10.493,10.159,19.1,12.383,6.06,1.564,11.783,3.045,13.576,6.128a4.707,4.707,0,0,1,.339,3.81c-1.3,4.456-5.04,19.632,1.621,27.918,2.928,3.644,7.511,5.376,13.6,5.125a43.357,43.357,0,0,0,6.184-.867A37.165,37.165,0,0,1,70.9,158.288Z" transform="translate(-9.246 -15.433)" fill="url(#linear-gradient-2)"/>
    </g>
    <g id="Group_4" data-name="Group 4" transform="translate(6.458 2.34)">
      <path id="Path_12" data-name="Path 12" d="M109.045,184.145a14.212,14.212,0,0,1-3.242-.386c-3.973-.927-5.9-3.285-7.762-5.565A15.65,15.65,0,0,0,93.1,173.7a12.782,12.782,0,0,0-4.69-1.237c-2.07-.246-4.024-.478-6.133-2.724a12.808,12.808,0,0,1-2.2-3.743,12.471,12.471,0,0,0-2.267-3.8c-4.14-4.262-9.115-3.594-14.378-2.89a42.674,42.674,0,0,1-5.989.527c-5.893-.033-10.411-1.9-13.424-5.545-6.4-7.737-4.332-21.529-3.146-27.1,1.169-5.479-5.354-7.64-12.9-10.144-7.875-2.611-16.8-5.57-17.507-13.227-.926-9.846,8.07-14.218,16.007-18.076,6.845-3.326,12.757-6.2,10.993-11.794-1.652-5.242-2.318-9.169,4.213-12h0a21.024,21.024,0,0,1,7.311-1.408c3.143-.21,6.108-.406,9.318-2.63a18.388,18.388,0,0,0,7.926-13.332,24,24,0,0,0-.164-4.554c-.364-3.566-.678-6.649,3.755-9.76,3.171-2.222,7.39-1.03,11.114.025,2.843.8,5.529,1.562,7.192.616,1.485-.845,2.307-2.423,3.1-3.953,1.158-2.225,2.253-4.322,5.215-3.823,1.988.34,3.041,2.045,4.06,3.693,1.274,2.065,2.589,4.2,5.766,3.942,4.357-.342,8.107-3.933,11.732-7.406,2.708-2.592,5.263-5.04,8.076-6.274,7.327-3.21,15.033-.179,20.61,8.118a38.625,38.625,0,0,1,3.233,6.183c2.087,4.692,3.736,8.4,10.784,9.387a11.922,11.922,0,0,0,4.075-.226c1.6-.3,2.866-.527,4.156.726,1.087,1.057.274,2.688-.514,4.267-.954,1.91-1.855,3.712-.009,4.805.788.464,2.779-.077,4.7-.6,2.31-.627,4.49-1.217,5.413-.444,2.143,1.794,1.666,4.869,1.248,7.582-.124.8-.24,1.557-.28,2.227-.432,7.414,2.38,9.007,7.037,11.645a49.491,49.491,0,0,1,6.432,4.151,42.376,42.376,0,0,0,5.724,3.384c6.695,3.547,15.028,7.963,15.1,16.633.065,9.512-7.525,13.726-14.223,17.442-2.877,1.6-5.6,3.108-7.344,4.88-6.156,6.246-6.565,10.356-7.246,17.166-.119,1.2-.243,2.44-.409,3.8-.649,5.3-5.139,6.092-9.891,6.928-2.883.508-5.862,1.032-8.11,2.6-2.976,2.078-3.5,6.9-4,11.562-.565,5.244-1.149,10.665-5.266,12.277-3.134,1.217-6.277.417-9.313-.359-3.287-.836-6.393-1.631-9.567-.132a43.817,43.817,0,0,1-5.873,2.117,33.058,33.058,0,0,0-8.22,3.384c-1.265.789-2.479,1.662-3.654,2.5C117.081,181.681,113.65,184.145,109.045,184.145ZM69.081,158.451a11.717,11.717,0,0,1,8.985,3.508,12.733,12.733,0,0,1,2.335,3.9,12.42,12.42,0,0,0,2.138,3.643c2.022,2.15,3.823,2.366,5.91,2.614a13.1,13.1,0,0,1,4.814,1.272,15.956,15.956,0,0,1,5.06,4.585c1.909,2.335,3.71,4.543,7.565,5.443,6.175,1.43,10.256-1.5,14.573-4.6,1.18-.847,2.4-1.722,3.674-2.517a33.3,33.3,0,0,1,8.307-3.423,43.817,43.817,0,0,0,5.825-2.1c3.29-1.557,6.607-.709,9.815.11,2.979.759,6.06,1.546,9.087.37,3.914-1.532,4.484-6.845,5.037-11.985.511-4.742,1.039-9.641,4.151-11.814,2.313-1.615,5.334-2.147,8.254-2.661,4.617-.814,8.982-1.582,9.6-6.622.164-1.355.288-2.592.407-3.79.666-6.652,1.107-11.044,7.347-17.375,1.785-1.811,4.524-3.332,7.426-4.943,6.61-3.668,14.1-7.831,14.039-17.132-.071-8.463-8.3-12.821-14.909-16.324a42.709,42.709,0,0,1-5.777-3.42,49.366,49.366,0,0,0-6.387-4.121c-4.614-2.614-7.663-4.342-7.217-11.974.04-.685.158-1.449.285-2.258.4-2.622.861-5.595-1.129-7.262-.774-.651-2.962-.055-5.08.516-2.09.566-4.066,1.1-4.987.56-2.132-1.261-1.067-3.39-.133-5.266.768-1.532,1.491-2.981.585-3.862-1.152-1.121-2.279-.914-3.835-.627a12.141,12.141,0,0,1-4.19.226c-7.246-1.013-9.016-4.99-11.063-9.594a38.416,38.416,0,0,0-3.2-6.13c-2.626-3.908-9.849-12.509-20.161-7.988-2.75,1.206-5.286,3.635-7.968,6.2-3.674,3.514-7.471,7.152-11.958,7.5-3.394.273-4.772-1.957-6.1-4.11-1.022-1.656-1.988-3.216-3.812-3.53-2.7-.461-3.688,1.438-4.831,3.635-.819,1.573-1.666,3.2-3.242,4.1-1.8,1.021-4.557.24-7.477-.582-3.643-1.032-7.774-2.2-10.8-.077-4.264,2.992-3.973,5.838-3.6,9.437a24.176,24.176,0,0,1,.161,4.618A18.735,18.735,0,0,1,58.509,58.2c-3.292,2.283-6.449,2.492-9.5,2.7a20.781,20.781,0,0,0-7.192,1.377h0c-6.274,2.716-5.661,6.346-4.012,11.571,1.855,5.882-4.185,8.819-11.179,12.217-7.833,3.809-16.713,8.123-15.81,17.726.689,7.43,9.493,10.351,17.264,12.926,7.392,2.451,14.375,4.767,13.144,10.552-1.177,5.52-3.23,19.186,3.069,26.807,2.942,3.558,7.367,5.38,13.147,5.413a44.713,44.713,0,0,0,5.935-.524A43.566,43.566,0,0,1,69.081,158.451Z" transform="translate(-10.39 -15.832)" fill="url(#linear-gradient-3)"/>
    </g>
    <g id="Group_5" data-name="Group 5" transform="translate(9.684 3.458)">
      <path id="Path_13" data-name="Path 13" d="M107.5,182.186a14.617,14.617,0,0,1-3.106-.342c-3.8-.822-5.789-2.92-7.717-4.953a16.915,16.915,0,0,0-4.95-4,13.846,13.846,0,0,0-4.5-1.169c-2.025-.27-3.939-.524-6.009-2.545a13.512,13.512,0,0,1-2.33-3.408,13.34,13.34,0,0,0-2.383-3.464c-4.06-3.883-8.81-3.535-13.833-3.166a45.026,45.026,0,0,1-5.755.174c-5.56-.312-9.908-2.27-12.93-5.819-5.709-6.709-5.65-17.814-4.594-25.947.706-5.422-5.523-8.041-12.114-10.813-7.045-2.964-15.03-6.323-15.686-13.752-.844-9.373,7.15-14.047,14.2-18.17,6.243-3.648,11.631-6.8,10.321-12.365-1.194-5.063-1.573-8.871,4.439-11.77h0a21.222,21.222,0,0,1,6.777-1.7c2.9-.383,5.645-.745,8.612-2.868A19.142,19.142,0,0,0,63.778,43.6a24.061,24.061,0,0,0,.141-4.109c-.085-3.342-.155-6.227,4.007-9.131,2.993-2.076,6.921-1.183,10.388-.392,2.7.615,5.252,1.194,6.912.273a8.933,8.933,0,0,0,3.058-3.574c1.192-2.019,2.318-3.927,5.088-3.557,1.895.254,2.973,1.7,4.018,3.108,1.3,1.748,2.643,3.555,5.611,3.293,4.151-.37,7.785-3.527,11.3-6.58,2.66-2.314,5.173-4.495,7.915-5.6,9.97-4,17.222,3.726,19.879,7.233a38.587,38.587,0,0,1,3.3,5.427c2.267,4.261,4.058,7.628,10.659,8.637a12.18,12.18,0,0,0,3.753-.091c1.553-.215,2.781-.386,4.041.769,1.07.979.474,2.468-.1,3.91-.7,1.735-1.353,3.37.4,4.393.8.469,2.654.063,4.445-.328,2.143-.472,4.168-.918,5.094-.165,2.188,1.779,2.061,4.721,1.951,7.316-.031.739-.059,1.434-.034,2.065.277,6.9,3.171,8.775,7.556,11.612a53.669,53.669,0,0,1,6.034,4.363,48.833,48.833,0,0,0,5.365,3.687c6.2,3.894,13.91,8.739,14.11,17.285.195,9.324-6.579,14.056-12.557,18.231a37.412,37.412,0,0,0-6.627,5.364c-5.684,6.469-6.387,10.97-7.452,17.778-.153.976-.313,2-.5,3.091-.844,5-5.068,5.992-9.538,7.043-2.651.62-5.39,1.263-7.511,2.791-2.886,2.077-3.662,6.505-4.411,10.791-.85,4.867-1.731,9.9-5.741,11.516-3.019,1.213-6.054.626-8.991.055-3.013-.585-6.127-1.189-9.174.207a46.58,46.58,0,0,1-5.828,2.054,36.1,36.1,0,0,0-7.856,3.08c-1.175.678-2.31,1.42-3.411,2.137C115.463,179.938,112.015,182.186,107.5,182.186Zm-40.61-23.581c3.473,0,6.881.632,9.846,3.469a13.466,13.466,0,0,1,2.445,3.541,13.054,13.054,0,0,0,2.27,3.331,8.868,8.868,0,0,0,5.817,2.452,14.121,14.121,0,0,1,4.605,1.2,17.216,17.216,0,0,1,5.049,4.07c1.979,2.087,3.852,4.056,7.545,4.856,5.983,1.282,10.081-1.387,14.421-4.214,1.1-.72,2.245-1.464,3.428-2.145a36.334,36.334,0,0,1,7.923-3.113,45.754,45.754,0,0,0,5.789-2.038c3.146-1.437,6.317-.825,9.38-.229,2.886.56,5.87,1.139,8.8-.039,3.84-1.547,4.668-6.268,5.54-11.268.762-4.349,1.547-8.844,4.54-11,2.177-1.566,4.95-2.217,7.632-2.846,4.36-1.023,8.48-1.988,9.287-6.776.184-1.089.344-2.112.494-3.089,1.073-6.867,1.782-11.4,7.531-17.944a37.661,37.661,0,0,1,6.686-5.413c5.91-4.128,12.608-8.808,12.416-17.96-.195-8.369-7.824-13.162-13.955-17.015a48.57,48.57,0,0,1-5.4-3.715,52.992,52.992,0,0,0-6-4.338c-4.47-2.893-7.421-4.807-7.706-11.872-.025-.645,0-1.348.037-2.093.1-2.52.226-5.375-1.833-7.051-.8-.645-2.835-.2-4.806.232-1.94.427-3.775.83-4.69.292-1.994-1.164-1.22-3.094-.539-4.8.562-1.4,1.093-2.722.186-3.552-1.144-1.045-2.245-.891-3.764-.681a12.73,12.73,0,0,1-3.854.091c-6.768-1.037-8.683-4.641-10.9-8.813a38.461,38.461,0,0,0-3.278-5.383c-2.609-3.444-9.728-11.039-19.478-7.123-2.691,1.078-5.181,3.243-7.822,5.535-3.555,3.089-7.231,6.282-11.492,6.662-3.157.281-4.557-1.6-5.913-3.425-1.05-1.409-2.042-2.741-3.792-2.975-2.547-.342-3.572,1.39-4.755,3.4a9.184,9.184,0,0,1-3.179,3.7c-1.773.982-4.388.389-7.155-.243-3.4-.772-7.248-1.649-10.117.342-4.018,2.8-3.948,5.606-3.866,8.855a24.481,24.481,0,0,1-.147,4.164,19.458,19.458,0,0,1-7.963,12.726c-3.038,2.176-5.952,2.559-8.77,2.929a21,21,0,0,0-6.67,1.674h0c-5.791,2.793-5.421,6.489-4.261,11.4,1.367,5.8-4.385,9.161-10.476,12.721C19,89.168,11.1,93.784,11.93,102.956c.635,7.233,8.183,10.407,15.482,13.479,6.709,2.824,13.051,5.49,12.314,11.155-1.048,8.069-1.115,19.077,4.521,25.7,2.956,3.477,7.226,5.394,12.69,5.7a44.419,44.419,0,0,0,5.709-.176C64.055,158.71,65.478,158.605,66.893,158.605Z" transform="translate(-11.532 -16.21)" fill="url(#linear-gradient-4)"/>
    </g>
    <g id="Group_6" data-name="Group 6" transform="translate(12.913 4.645)">
      <path id="Path_14" data-name="Path 14" d="M105.96,180.18a15.371,15.371,0,0,1-2.971-.3c-3.623-.716-5.693-2.565-7.692-4.35a18.887,18.887,0,0,0-4.936-3.5,15.394,15.394,0,0,0-4.309-1.1,9.928,9.928,0,0,1-5.893-2.366,14.577,14.577,0,0,1-2.459-3.083,14.754,14.754,0,0,0-2.5-3.121c-3.97-3.5-8.482-3.468-13.254-3.435a47.412,47.412,0,0,1-5.554-.182c-13.079-1.474-19.3-11.866-18.475-30.888.229-5.342-5.354-8.309-11.264-11.45-6.551-3.479-13.322-7.077-13.924-14.3-.765-8.932,6.254-13.9,12.45-18.285,5.365-3.8,10.434-7.383,9.595-12.912-.714-4.725-.827-8.573,4.665-11.543h0a21.85,21.85,0,0,1,6.249-2.006,18.312,18.312,0,0,0,7.9-3.1,20.1,20.1,0,0,0,7.737-11.689,25,25,0,0,0,.429-3.661c.2-3.116.381-5.81,4.278-8.5,2.815-1.934,6.458-1.333,9.671-.8,2.555.419,4.967.821,6.622-.074a9.154,9.154,0,0,0,3.007-3.2c1.225-1.816,2.394-3.526,4.97-3.289,1.8.165,2.906,1.364,3.976,2.521,1.327,1.433,2.7,2.917,5.455,2.642,3.936-.394,7.449-3.119,10.846-5.752,2.5-1.942,5.094-3.953,7.776-4.92,6.6-2.389,13.579-.072,19.142,6.353a38.614,38.614,0,0,1,3.369,4.689c2.358,3.67,4.394,6.841,10.541,7.874a12.893,12.893,0,0,0,3.436.036c1.443-.129,2.691-.237,3.925.815,1.053.9.675,2.248.311,3.551-.438,1.559-.85,3.03.8,3.989.81.471,2.524.2,4.176-.066,1.9-.3,3.857-.617,4.781.116,2.242,1.769,2.468,4.587,2.671,7.072.054.667.1,1.3.189,1.884.937,6.347,3.911,8.532,8.022,11.557a59.818,59.818,0,0,1,5.7,4.592,58.122,58.122,0,0,0,4.9,3.89c5.746,4.259,12.9,9.557,13.226,18.034.333,9.207-5.681,14.485-10.99,19.139a44.856,44.856,0,0,0-5.814,5.722c-5.213,6.678-6.215,11.348-7.728,18.417-.161.758-.328,1.543-.508,2.358-1.033,4.708-5,5.907-9.191,7.174a22.157,22.157,0,0,0-6.91,2.967c-2.787,2.069-3.812,6.1-4.8,10-1.141,4.493-2.321,9.141-6.235,10.772-2.9,1.209-5.842.835-8.68.474-2.874-.366-5.851-.747-8.77.543a49.257,49.257,0,0,1-5.811,1.995,40.021,40.021,0,0,0-7.457,2.774c-1.081.57-2.14,1.187-3.163,1.782C113.847,178.156,110.376,180.178,105.96,180.18ZM63.255,158.617c4.207,0,8.48.278,12.159,3.521a15.009,15.009,0,0,1,2.547,3.182,14.135,14.135,0,0,0,2.406,3.022,9.71,9.71,0,0,0,5.732,2.292,15.534,15.534,0,0,1,4.391,1.124,19.216,19.216,0,0,1,5.018,3.551c2.058,1.84,4,3.576,7.542,4.278,5.794,1.132,9.917-1.27,14.279-3.81,1.025-.6,2.087-1.218,3.174-1.791a40.162,40.162,0,0,1,7.514-2.8,49.1,49.1,0,0,0,5.774-1.981c3-1.325,6.017-.939,8.937-.568,2.8.358,5.693.727,8.519-.452,3.77-1.57,4.882-5.94,6.057-10.565,1.005-3.951,2.042-8.036,4.916-10.171a22.443,22.443,0,0,1,7-3.011c4.108-1.242,7.985-2.413,8.982-6.951q.267-1.223.508-2.355c1.522-7.111,2.53-11.808,7.785-18.538a44.779,44.779,0,0,1,5.854-5.763c5.258-4.612,11.218-9.838,10.888-18.9-.328-8.334-7.412-13.585-13.1-17.805a58.034,58.034,0,0,1-4.927-3.912,59.833,59.833,0,0,0-5.664-4.57c-4.173-3.066-7.189-5.281-8.144-11.753-.088-.6-.138-1.231-.192-1.906-.2-2.424-.418-5.174-2.558-6.86-.819-.645-2.708-.344-4.535-.052-1.787.287-3.473.556-4.385.028-1.855-1.074-1.372-2.8-.943-4.328.353-1.267.689-2.466-.217-3.243-1.135-.972-2.265-.871-3.7-.744a13.015,13.015,0,0,1-3.513-.039c-6.283-1.058-8.355-4.278-10.753-8.011a38.759,38.759,0,0,0-3.343-4.656c-5.472-6.32-12.325-8.6-18.8-6.265-2.634.953-5.091,2.86-7.692,4.876-3.431,2.661-6.98,5.411-11.007,5.816-2.911.284-4.337-1.251-5.715-2.741-1.079-1.165-2.1-2.267-3.778-2.422-2.4-.22-3.507,1.419-4.682,3.154a9.36,9.36,0,0,1-3.115,3.295c-1.748.948-4.213.54-6.822.107-3.309-.545-6.732-1.11-9.442.752-3.778,2.612-3.948,5.24-4.148,8.279a25.057,25.057,0,0,1-.435,3.705A20.4,20.4,0,0,1,53.778,54.5a18.576,18.576,0,0,1-8.025,3.152,21.7,21.7,0,0,0-6.161,1.975h0c-5.328,2.879-5.229,6.474-4.509,11.235.867,5.711-4.275,9.35-9.719,13.2C19.236,88.4,12.29,93.314,13.041,102.081c.587,7.061,7.285,10.62,13.763,14.061,6,3.187,11.665,6.2,11.425,11.725-.813,18.838,5.311,29.125,18.2,30.577a46.673,46.673,0,0,0,5.515.179C62.382,158.62,62.817,158.617,63.255,158.617Z" transform="translate(-12.676 -16.612)" fill="url(#linear-gradient-5)"/>
    </g>
    <g id="Group_7" data-name="Group 7" transform="translate(16.139 5.775)">
      <path id="Path_15" data-name="Path 15" d="M104.413,178.21a16.278,16.278,0,0,1-2.832-.25,17.109,17.109,0,0,1-7.695-3.76A22.336,22.336,0,0,0,89,171.211a17.358,17.358,0,0,0-4.106-1.029,11.117,11.117,0,0,1-5.789-2.194,16.608,16.608,0,0,1-2.6-2.769,17.094,17.094,0,0,0-2.595-2.769c-3.86-3.11-8.118-3.394-12.625-3.691a51.016,51.016,0,0,1-5.4-.553,20.411,20.411,0,0,1-15.539-11.749c-2.253-4.632-3.524-10.6-3.888-18.264-.248-5.232-5.148-8.526-10.338-12.013-5.746-3.864-11.687-7.86-12.238-14.92C13.182,92.731,19,87.684,24.633,82.8c4.7-4.079,9.152-7.932,8.81-13.4-.285-4.544-.1-8.265,4.888-11.317h0a23.264,23.264,0,0,1,5.741-2.32,20.084,20.084,0,0,0,7.167-3.311,22.137,22.137,0,0,0,7.647-10.866,27.606,27.606,0,0,0,.689-3.2c.5-2.9.935-5.405,4.574-7.9,2.643-1.8,5.859-1.5,8.968-1.205,2.4.226,4.67.438,6.317-.429a9.718,9.718,0,0,0,2.954-2.824c1.262-1.61,2.451-3.135,4.854-3.022a6.488,6.488,0,0,1,3.939,1.935c1.35,1.123,2.747,2.276,5.292,2,3.713-.416,7.09-2.705,10.357-4.921a31.777,31.777,0,0,1,7.672-4.252c8.482-2.692,15.174,2.273,18.408,5.471a40.473,40.473,0,0,1,3.436,3.991c2.544,3.237,4.741,6.03,10.419,7.076a13.943,13.943,0,0,0,3.117.157,5.166,5.166,0,0,1,3.809.872c1.036.82.881,2.023.731,3.184-.181,1.387-.35,2.694,1.2,3.589.825.476,2.394.333,3.911.2,1.739-.157,3.538-.317,4.467.4,2.315,1.77,2.9,4.478,3.42,6.87.127.583.246,1.134.387,1.662,1.525,5.749,4.552,8.257,8.381,11.427a67.87,67.87,0,0,1,5.458,4.893c1.242,1.263,2.722,2.554,4.289,3.916,5.633,4.9,12.02,10.464,12.489,18.957.483,9.2-4.62,14.832-9.553,20.278A58.651,58.651,0,0,0,184,116.555c-4.727,6.828-6.122,11.917-8.056,18.963q-.229.834-.472,1.715c-1.225,4.426-4.933,5.837-8.858,7.332a24.389,24.389,0,0,0-6.291,3.113c-2.68,2.056-3.945,5.683-5.167,9.19-1.443,4.131-2.934,8.405-6.76,10.057-2.8,1.208-5.647,1.049-8.4.894-2.731-.151-5.554-.308-8.336.87a52.743,52.743,0,0,1-5.848,1.949,46.229,46.229,0,0,0-7.008,2.458c-.971.46-1.926.952-2.852,1.426C112.274,176.407,108.759,178.21,104.413,178.21ZM38.48,58.318h0c-4.86,2.972-5.035,6.614-4.755,11.067.35,5.606-4.145,9.5-8.906,13.626-5.577,4.836-11.346,9.834-10.665,18.228.542,6.927,6.43,10.885,12.119,14.713,5.246,3.528,10.2,6.861,10.459,12.231.85,17.9,7.13,27.632,19.2,29.752a50.147,50.147,0,0,0,5.373.55c4.354.289,8.855.586,12.786,3.751a17.379,17.379,0,0,1,2.637,2.816,16.356,16.356,0,0,0,2.558,2.725,10.9,10.9,0,0,0,5.653,2.133,17.692,17.692,0,0,1,4.171,1.049,22.431,22.431,0,0,1,4.953,3.025c2.149,1.6,4.179,3.1,7.573,3.707,5.622.977,9.787-1.156,14.2-3.416.926-.476,1.883-.966,2.858-1.428a46.146,46.146,0,0,1,7.054-2.474,52.862,52.862,0,0,0,5.814-1.935c2.843-1.208,5.7-1.046,8.465-.894,2.719.154,5.532.311,8.265-.872,3.713-1.6,5.119-5.628,6.607-9.891,1.237-3.545,2.516-7.211,5.261-9.316a24.491,24.491,0,0,1,6.365-3.154c3.857-1.47,7.5-2.857,8.686-7.148.164-.586.319-1.156.474-1.715,1.937-7.07,3.34-12.179,8.093-19.048a59.341,59.341,0,0,1,4.891-5.873c4.9-5.405,9.959-11,9.482-20.083-.463-8.378-6.8-13.9-12.4-18.765-1.57-1.368-3.055-2.661-4.3-3.933A67.833,67.833,0,0,0,176,62.872c-3.868-3.2-6.924-5.736-8.471-11.57-.144-.534-.263-1.087-.39-1.676-.508-2.342-1.081-5-3.318-6.71-.841-.644-2.581-.49-4.267-.336-1.632.146-3.177.283-4.08-.237-1.714-.985-1.516-2.513-1.341-3.859.15-1.139.288-2.213-.627-2.939-1.121-.892-2.225-.853-3.62-.809a14.053,14.053,0,0,1-3.179-.162c-5.786-1.065-8.014-3.9-10.592-7.178a40.5,40.5,0,0,0-3.414-3.963c-3.188-3.157-9.781-8.053-18.12-5.405a31.109,31.109,0,0,0-7.6,4.216c-3.3,2.235-6.7,4.544-10.484,4.968-2.668.306-4.111-.9-5.509-2.059a6.188,6.188,0,0,0-3.77-1.869c-.076,0-.15-.006-.223-.006-2.1,0-3.216,1.42-4.394,2.92a9.886,9.886,0,0,1-3.044,2.9c-1.72.905-4.029.688-6.475.462-3.058-.286-6.223-.583-8.782,1.156-3.544,2.427-3.967,4.88-4.459,7.72a27.279,27.279,0,0,1-.695,3.226,22.4,22.4,0,0,1-7.743,11.006,20.329,20.329,0,0,1-7.26,3.36A23.062,23.062,0,0,0,38.48,58.318Z" transform="translate(-13.818 -16.995)" fill="url(#linear-gradient-6)"/>
    </g>
    <g id="Group_8" data-name="Group 8" transform="translate(19.364 6.92)">
      <path id="Path_16" data-name="Path 16" d="M102.866,176.229a17.983,17.983,0,0,1-2.691-.2,19.763,19.763,0,0,1-7.759-3.187,28,28,0,0,0-4.789-2.464,21.11,21.11,0,0,0-3.877-.954,12.887,12.887,0,0,1-5.7-2.024,20.168,20.168,0,0,1-2.77-2.469,21.7,21.7,0,0,0-2.668-2.406c-3.719-2.705-7.878-3.316-11.9-3.907-1.756-.256-3.575-.525-5.342-.96-15.084-3.725-18.857-18.413-20.381-29.138-.72-5.064-4.891-8.647-9.31-12.441-4.989-4.284-10.148-8.716-10.657-15.669-.621-8.2,4.348-13.568,9.154-18.765,4-4.317,7.768-8.394,7.94-13.753.136-4.209.613-7.949,5.111-11.091h0a25.817,25.817,0,0,1,5.266-2.661,23.436,23.436,0,0,0,6.4-3.5,25.625,25.625,0,0,0,7.553-10.046c.376-.946.647-1.842.909-2.705.813-2.694,1.516-5.023,4.913-7.324,2.476-1.663,5.43-1.636,8.29-1.6,2.239.022,4.354.044,5.986-.789a10.964,10.964,0,0,0,2.906-2.428c1.3-1.377,2.53-2.678,4.727-2.774A6.661,6.661,0,0,1,88.144,24.3a7.164,7.164,0,0,0,5.063,1.372c3.467-.437,6.692-2.29,9.809-4.083a33.455,33.455,0,0,1,7.627-3.591c7.536-2.032,13.768,1.377,17.671,4.594a44.973,44.973,0,0,1,3.524,3.324c2.73,2.777,5.091,5.177,10.281,6.244a15.575,15.575,0,0,0,2.784.267,5.979,5.979,0,0,1,3.707.938,3.314,3.314,0,0,1,1.149,2.824c.073,1.158.15,2.356,1.6,3.187a8.262,8.262,0,0,0,3.637.459c1.59-.014,3.227-.019,4.162.674,2.42,1.8,3.34,4.314,4.23,6.747.172.465.339.924.517,1.369,2.016,5.086,5.043,7.885,8.55,11.127,1.731,1.6,3.521,3.253,5.413,5.359,1.056,1.177,2.222,2.362,3.459,3.621,5.317,5.414,11.348,11.553,11.975,20.2.649,9.37-3.9,15.729-8.3,21.874-1.344,1.878-2.612,3.651-3.747,5.515-4.145,6.8-5.882,11.924-8.285,19.012l-.531,1.567c-1.418,4.157-4.882,5.8-8.55,7.531a28.385,28.385,0,0,0-5.65,3.22c-2.55,2.026-4.038,5.232-5.478,8.333-1.759,3.786-3.575,7.7-7.336,9.387a20.313,20.313,0,0,1-8.163,1.333,21.42,21.42,0,0,0-7.853,1.18,58.231,58.231,0,0,1-5.978,1.925,55.589,55.589,0,0,0-6.466,2.117c-.822.344-1.638.7-2.428,1.056C110.773,174.643,107.175,176.229,102.866,176.229ZM37.368,57h0c-4.4,3.077-4.871,6.755-5.006,10.9-.175,5.449-3.979,9.56-8,13.912-4.772,5.155-9.7,10.486-9.089,18.578.5,6.854,5.619,11.251,10.569,15.5,4.456,3.824,8.66,7.437,9.394,12.592,1.516,10.654,5.258,25.245,20.192,28.932,1.754.432,3.566.7,5.317.957,4.055.594,8.251,1.21,12.02,3.951a21.993,21.993,0,0,1,2.7,2.433,19.608,19.608,0,0,0,2.736,2.439,12.645,12.645,0,0,0,5.6,1.982,21.4,21.4,0,0,1,3.925.965,28.376,28.376,0,0,1,4.831,2.485,19.541,19.541,0,0,0,7.663,3.151c5.489.83,9.73-1.045,14.223-3.027.791-.349,1.61-.712,2.434-1.056a55.744,55.744,0,0,1,6.494-2.128,58.4,58.4,0,0,0,5.952-1.914,21.586,21.586,0,0,1,7.943-1.2c2.657-.058,5.4-.118,8.064-1.311,3.674-1.647,5.39-5.345,7.209-9.26,1.451-3.129,2.954-6.362,5.549-8.424a28.771,28.771,0,0,1,5.7-3.253c3.62-1.71,7.037-3.327,8.42-7.382l.531-1.57c2.409-7.1,4.148-12.235,8.307-19.062,1.138-1.872,2.468-3.731,3.756-5.529,4.374-6.112,8.895-12.43,8.251-21.715-.621-8.559-6.616-14.663-11.9-20.046-1.237-1.259-2.406-2.45-3.465-3.629-1.886-2.1-3.671-3.747-5.4-5.342-3.53-3.264-6.579-6.079-8.615-11.218-.178-.448-.344-.907-.517-1.377-.878-2.4-1.787-4.877-4.145-6.629-.867-.643-2.459-.632-4-.627a8.1,8.1,0,0,1-3.77-.492c-1.573-.9-1.652-2.161-1.728-3.387a3.084,3.084,0,0,0-1.048-2.637,5.694,5.694,0,0,0-3.564-.888,15.725,15.725,0,0,1-2.829-.272c-5.269-1.083-7.652-3.508-10.411-6.315a45.018,45.018,0,0,0-3.507-3.308c-3.854-3.178-10-6.549-17.436-4.542a32.871,32.871,0,0,0-7.565,3.563c-3.14,1.806-6.387,3.673-9.906,4.116a7.377,7.377,0,0,1-5.229-1.408,6.517,6.517,0,0,0-3.832-1.289c-2.092.093-3.284,1.358-4.549,2.694A11.181,11.181,0,0,1,76.654,28.4c-1.689.861-3.837.839-6.108.814-2.821-.027-5.732-.06-8.144,1.559-3.321,2.249-4.012,4.537-4.812,7.187-.263.872-.537,1.771-.915,2.725a25.549,25.549,0,0,1-7.63,10.151,23.63,23.63,0,0,1-6.463,3.536A25.667,25.667,0,0,0,37.368,57Z" transform="translate(-14.96 -17.382)" fill="url(#linear-gradient-7)"/>
    </g>
    <g id="Group_9" data-name="Group 9" transform="translate(22.591 8.078)">
      <path id="Path_17" data-name="Path 17" d="M101.313,174.243a20.4,20.4,0,0,1-2.547-.159,24.851,24.851,0,0,1-7.951-2.639,39.651,39.651,0,0,0-4.555-1.914,27.013,27.013,0,0,0-3.609-.865,15.706,15.706,0,0,1-5.661-1.87,26.528,26.528,0,0,1-3-2.2,30.254,30.254,0,0,0-2.677-2.01c-3.51-2.274-7.316-3.169-11-4.035-1.8-.423-3.657-.86-5.467-1.453-14.124-4.633-18.938-18.352-21.333-28.27-1.158-4.784-4.543-8.558-8.129-12.552-4.306-4.8-8.759-9.756-9.228-16.729-.559-8,3.631-13.79,7.683-19.393,3.216-4.447,6.252-8.652,6.935-13.774.517-3.87,1.31-7.613,5.334-10.871h0a30.774,30.774,0,0,1,4.862-3.068,29.954,29.954,0,0,0,5.56-3.62,32.267,32.267,0,0,0,7.466-9.228c.392-.75.723-1.467,1.045-2.164,1.155-2.508,2.154-4.677,5.328-6.8,2.327-1.541,5.035-1.774,7.655-2a15.876,15.876,0,0,0,5.613-1.14,12.857,12.857,0,0,0,2.812-2.076c1.35-1.208,2.626-2.348,4.656-2.486a8.942,8.942,0,0,1,3.914.75,9.273,9.273,0,0,0,4.924.717,33.237,33.237,0,0,0,9.143-3.238,37.658,37.658,0,0,1,7.7-2.939c7.034-1.522,13.093,1.181,16.936,3.716,1.364.9,2.547,1.835,3.688,2.733,2.781,2.194,5.41,4.263,10.064,5.342a18.688,18.688,0,0,0,2.437.363,7.338,7.338,0,0,1,3.623,1.019,4.045,4.045,0,0,1,1.578,2.461,4.169,4.169,0,0,0,1.991,2.785,9.168,9.168,0,0,0,3.355.714,8.262,8.262,0,0,1,3.866.961c2.581,1.857,3.9,4.342,5.179,6.745.169.321.339.64.511.953,2.338,4.3,5.26,7.276,8.35,10.42,1.855,1.89,3.775,3.842,5.738,6.226.712.868,1.443,1.733,2.217,2.645,5.181,6.117,11.052,13.046,11.871,22.129.867,9.893-3.3,17.287-7.336,24.436-.776,1.376-1.578,2.8-2.33,4.21a172.011,172.011,0,0,0-7.661,16.963c-.466,1.137-.943,2.307-1.44,3.518-1.621,3.922-4.868,5.812-8.31,7.808a36.376,36.376,0,0,0-4.941,3.246c-2.383,1.964-4.06,4.724-5.678,7.394-2.109,3.472-4.286,7.059-8.025,8.8a24.42,24.42,0,0,1-8.025,1.807,27.748,27.748,0,0,0-7.274,1.456c-2.067.791-4.216,1.379-6.294,1.945-1.886.516-3.835,1.046-5.735,1.733q-.9.325-1.79.656C109.414,172.856,105.664,174.243,101.313,174.243ZM36.253,55.681h0c-3.586,2.9-4.639,6.13-5.252,10.725-.689,5.18-3.744,9.4-6.977,13.875C20,85.854,15.829,91.616,16.382,99.532c.463,6.9,4.891,11.827,9.171,16.595,3.606,4.015,7.011,7.808,8.18,12.65,2.38,9.866,7.169,23.51,21.183,28.105,1.8.591,3.654,1.027,5.447,1.45,3.7.871,7.528,1.769,11.072,4.065a31.565,31.565,0,0,1,2.7,2.024,26,26,0,0,0,2.976,2.183,15.616,15.616,0,0,0,5.582,1.84,27.593,27.593,0,0,1,3.64.873,39.042,39.042,0,0,1,4.583,1.925,24.644,24.644,0,0,0,7.881,2.617c5.421.678,9.815-.948,14.466-2.67q.889-.33,1.79-.656c1.912-.689,3.866-1.222,5.755-1.739,2.073-.566,4.216-1.151,6.271-1.936a27.988,27.988,0,0,1,7.333-1.472,23.886,23.886,0,0,0,7.952-1.785c3.674-1.711,5.741-5.111,7.923-8.712,1.632-2.686,3.318-5.463,5.729-7.451a36.569,36.569,0,0,1,4.973-3.266c3.408-1.98,6.624-3.851,8.214-7.7.5-1.211.977-2.378,1.44-3.516a171.788,171.788,0,0,1,7.672-16.982c.751-1.417,1.553-2.84,2.33-4.216,4.018-7.122,8.169-14.485,7.311-24.309-.813-9.014-6.661-15.916-11.817-22.005-.777-.915-1.508-1.777-2.222-2.648-1.957-2.378-3.871-4.326-5.721-6.21-3.1-3.159-6.037-6.141-8.392-10.473-.169-.313-.339-.634-.508-.953-1.268-2.381-2.575-4.845-5.111-6.671a8.188,8.188,0,0,0-3.753-.917,9.3,9.3,0,0,1-3.445-.744,4.338,4.338,0,0,1-2.1-2.911,3.812,3.812,0,0,0-1.488-2.343,7.12,7.12,0,0,0-3.518-.981,19.408,19.408,0,0,1-2.465-.368c-4.7-1.09-7.353-3.175-10.154-5.383-1.138-.9-2.315-1.826-3.674-2.722-3.8-2.513-9.8-5.194-16.756-3.686a37.582,37.582,0,0,0-7.649,2.925,33.454,33.454,0,0,1-9.211,3.257,9.526,9.526,0,0,1-5.035-.731,8.747,8.747,0,0,0-3.818-.736c-1.951.132-3.2,1.247-4.518,2.428a12.989,12.989,0,0,1-2.863,2.109,15.948,15.948,0,0,1-5.7,1.165c-2.589.225-5.269.456-7.545,1.964-3.12,2.087-4.108,4.227-5.249,6.707-.322.7-.655,1.417-1.05,2.172a32.414,32.414,0,0,1-7.517,9.294,30.128,30.128,0,0,1-5.6,3.647A30.44,30.44,0,0,0,36.253,55.681Z" transform="translate(-16.103 -17.774)" fill="url(#linear-gradient-8)"/>
    </g>
    <g id="Group_10" data-name="Group 10" transform="translate(25.817 9.214)">
      <path id="Path_18" data-name="Path 18" d="M99.758,172.269c-.782,0-1.581-.036-2.4-.115a34.224,34.224,0,0,1-8.471-2.148c-1.268-.444-2.578-.9-4-1.309-1.11-.321-2.188-.538-3.227-.749a21.285,21.285,0,0,1-5.732-1.745,38.591,38.591,0,0,1-3.408-2.008c-.8-.51-1.624-1.034-2.513-1.539a52.508,52.508,0,0,0-9.634-3.929c-1.991-.658-4.049-1.339-6.046-2.181-13.452-5.663-19.164-18.349-22.29-27.4-1.463-4.242-4.089-8.11-6.627-11.849-3.772-5.558-7.675-11.306-8.118-18.6-.514-8.113,3.041-14.615,6.48-20.9,2.239-4.093,4.557-8.327,5.664-12.914C30.448,60.709,31.778,57.3,35,54.235h0a41.008,41.008,0,0,1,4.622-3.66,46.549,46.549,0,0,0,4.555-3.556,49.75,49.75,0,0,0,7.375-8.406c.35-.513.681-1.012,1-1.5a19.287,19.287,0,0,1,5.93-6.406A19.7,19.7,0,0,1,65.6,28.28a22.13,22.13,0,0,0,5.139-1.465,17.625,17.625,0,0,0,2.688-1.69,10.19,10.19,0,0,1,4.614-2.233,13.454,13.454,0,0,1,3.979.145,14.379,14.379,0,0,0,4.656.1,47.017,47.017,0,0,0,8.186-2.362,46.446,46.446,0,0,1,8.062-2.321,26.641,26.641,0,0,1,16.2,2.845c1.482.735,2.827,1.52,4.125,2.274a35.951,35.951,0,0,0,9.572,4.3c.731.192,1.4.316,2.053.433a10.048,10.048,0,0,1,3.575,1.122,6.133,6.133,0,0,1,2.03,2.118,6.507,6.507,0,0,0,2.358,2.365,11.458,11.458,0,0,0,3.047.96,10.359,10.359,0,0,1,3.595,1.257,27.072,27.072,0,0,1,6.447,7.032l.181.255a89.932,89.932,0,0,0,7.268,8.659c2.284,2.5,4.648,5.087,6.943,8.146,5.453,7.276,11.634,15.518,12.743,25.718,1.206,11.293-2.838,20.154-7.119,29.535l-.167.37c-.946,2.069-1.844,4.069-2.711,6-2.152,4.8-4.185,9.331-6.681,14.374-1.864,3.77-4.958,5.965-8.234,8.288-1.361.966-2.764,1.962-4.066,3.076a43.079,43.079,0,0,0-5.605,6.244c-2.541,3.235-5.17,6.576-8.982,8.428a32.462,32.462,0,0,1-8.132,2.373,42.678,42.678,0,0,0-6.452,1.635c-2.324.84-4.744,1.468-7.082,2.074-1.488.387-3.024.785-4.535,1.237l-.621.187C108.4,171.045,104.327,172.269,99.758,172.269ZM35.138,54.375c-3.182,3.034-4.5,6.414-5.5,10.552-1.113,4.612-3.436,8.859-5.681,12.963-3.428,6.264-6.969,12.738-6.458,20.8.44,7.238,4.326,12.961,8.084,18.5,2.547,3.75,5.179,7.63,6.653,11.9,3.112,9.013,8.8,21.647,22.177,27.279,1.988.837,4.044,1.517,6.029,2.176a52.5,52.5,0,0,1,9.671,3.945c.9.5,1.722,1.032,2.522,1.542a38.368,38.368,0,0,0,3.391,2,21.084,21.084,0,0,0,5.678,1.726c1.048.214,2.126.431,3.247.752,1.423.409,2.736.87,4,1.314a34.178,34.178,0,0,0,8.426,2.14c5.534.527,10.247-.889,15.237-2.387l.621-.187c1.513-.453,3.052-.853,4.543-1.24,2.332-.6,4.747-1.232,7.062-2.069a42.935,42.935,0,0,1,6.483-1.643,31.662,31.662,0,0,0,8.079-2.357c3.772-1.83,6.269-5.007,8.914-8.371a43.252,43.252,0,0,1,5.63-6.272c1.307-1.122,2.719-2.121,4.08-3.087,3.256-2.31,6.331-4.491,8.175-8.214,2.49-5.04,4.524-9.57,6.675-14.368.867-1.931,1.765-3.932,2.711-6l.169-.373c4.267-9.356,8.3-18.193,7.1-29.43-1.107-10.148-7.271-18.368-12.709-25.622a106.579,106.579,0,0,0-6.929-8.132,90.676,90.676,0,0,1-7.282-8.675l-.184-.258a26.785,26.785,0,0,0-6.4-6.982,10.2,10.2,0,0,0-3.524-1.226,11.791,11.791,0,0,1-3.1-.979,6.7,6.7,0,0,1-2.428-2.431,5.959,5.959,0,0,0-1.962-2.055,9.866,9.866,0,0,0-3.51-1.1c-.652-.121-1.327-.244-2.067-.439a36.125,36.125,0,0,1-9.623-4.324c-1.3-.754-2.64-1.536-4.114-2.269a26.488,26.488,0,0,0-16.078-2.826,45.977,45.977,0,0,0-8.022,2.313,47.465,47.465,0,0,1-8.223,2.373,14.586,14.586,0,0,1-4.718-.1,13.192,13.192,0,0,0-3.922-.143,9.963,9.963,0,0,0-4.521,2.195,17.831,17.831,0,0,1-2.719,1.709,22.3,22.3,0,0,1-5.187,1.479,19.578,19.578,0,0,0-7.048,2.4,19.124,19.124,0,0,0-5.873,6.351c-.319.483-.649.985-1,1.5a49.938,49.938,0,0,1-7.407,8.442,46.87,46.87,0,0,1-4.572,3.572,40.4,40.4,0,0,0-4.6,3.638Z" transform="translate(-17.245 -18.159)" fill="url(#linear-gradient-9)"/>
    </g>
    <g id="Group_11" data-name="Group 11" transform="translate(29.032 10.352)">
      <path id="Path_19" data-name="Path 19" d="M98.158,170.293q-1.089,0-2.2-.069a56.848,56.848,0,0,1-10.329-1.858c-.689-.17-1.386-.34-2.1-.51-.819-.195-1.629-.364-2.417-.532a35.873,35.873,0,0,1-6.235-1.718c-1.609-.652-3.081-1.373-4.636-2.14-.5-.247-1.008-.5-1.528-.748-2.146-1.036-4.337-1.962-6.455-2.858-2.787-1.181-5.67-2.4-8.437-3.867-9.908-5.248-17.513-13.927-23.245-26.537-1.2-2.647-2.57-5.286-3.894-7.835-3.818-7.364-7.765-14.977-8.245-23.769-.531-9.5,2.815-17.564,6.359-26.1,1.129-2.721,2.3-5.533,3.315-8.367a31.313,31.313,0,0,1,5.78-10.43h0a64.193,64.193,0,0,1,5.057-5.029c.932-.861,1.9-1.748,2.877-2.71,2.428-2.384,4.879-4.936,7.282-7.586l.28-.307A34.243,34.243,0,0,1,56.6,30.792a31.114,31.114,0,0,1,6.96-3.028,45.348,45.348,0,0,0,4.289-1.617c.841-.384,1.635-.822,2.406-1.25a17.715,17.715,0,0,1,4.73-2.036,27.548,27.548,0,0,1,4.354-.534,34.252,34.252,0,0,0,4.083-.447c2.03-.373,4.066-.869,6.037-1.348a67.344,67.344,0,0,1,9.615-1.847,37.852,37.852,0,0,1,15.468,1.976c2.075.693,3.959,1.452,5.952,2.253,2.386.962,4.851,1.957,7.692,2.834.52.156,1.019.293,1.505.428a18.154,18.154,0,0,1,3.691,1.3,13.707,13.707,0,0,1,2.6,1.844,15.847,15.847,0,0,0,2.6,1.877,21.152,21.152,0,0,0,2.629,1.143,16.945,16.945,0,0,1,3.434,1.614,41.655,41.655,0,0,1,7.567,6.879c.85.935,1.7,1.853,2.536,2.765a123.15,123.15,0,0,1,11.8,14.19c6.8,9.995,10.318,18.216,11.4,26.66,1.553,12.242-1.81,23.083-4.913,31.16a132.61,132.61,0,0,1-9.674,20.269c-2.3,3.9-5.633,6.753-8.858,9.507-.822.7-1.669,1.428-2.493,2.165-1.528,1.362-2.993,2.82-4.411,4.231-3.479,3.461-6.766,6.733-11.066,8.92a51.777,51.777,0,0,1-9.177,3.308c-1.53.447-3.112.907-4.687,1.442-3.117,1.058-6.367,1.82-9.513,2.554l-1.689.395A57.913,57.913,0,0,1,98.158,170.293ZM34.03,53.072h0a31.172,31.172,0,0,0-5.749,10.373C27.264,66.284,26.1,69.1,24.966,71.82c-3.538,8.515-6.879,16.558-6.348,26.021.477,8.756,4.416,16.355,8.225,23.7,1.324,2.551,2.694,5.191,3.9,7.843,5.715,12.571,13.291,21.225,23.166,26.454,2.762,1.461,5.639,2.68,8.423,3.859,2.121.9,4.315,1.825,6.463,2.864q.779.378,1.528.748c1.553.765,3.021,1.488,4.625,2.135a35.585,35.585,0,0,0,6.206,1.71c.785.164,1.6.337,2.42.532.712.17,1.409.343,2.1.51a56.928,56.928,0,0,0,10.3,1.855c5.577.343,10.693-.707,15.457-1.82l1.689-.395c3.14-.734,6.39-1.494,9.5-2.549,1.578-.537,3.163-1,4.7-1.444a51.49,51.49,0,0,0,9.146-3.3c4.275-2.173,7.553-5.434,11.021-8.888,1.417-1.411,2.886-2.872,4.416-4.24.825-.737,1.677-1.463,2.5-2.165,3.36-2.872,6.537-5.585,8.821-9.463a132.557,132.557,0,0,0,9.66-20.244c3.1-8.057,6.452-18.871,4.9-31.078-1.079-8.416-4.586-16.616-11.374-26.586a122.467,122.467,0,0,0-11.78-14.171q-1.258-1.369-2.536-2.768a41.527,41.527,0,0,0-7.539-6.851,16.711,16.711,0,0,0-3.394-1.595,21.06,21.06,0,0,1-2.651-1.151,16.147,16.147,0,0,1-2.632-1.9,13.475,13.475,0,0,0-2.57-1.822,18,18,0,0,0-3.66-1.294c-.486-.132-.985-.271-1.508-.43-2.846-.877-5.317-1.872-7.706-2.834-1.991-.8-3.871-1.562-5.941-2.25a37.693,37.693,0,0,0-15.395-1.97A67.6,67.6,0,0,0,89.5,20.7c-1.974.48-4.012.976-6.046,1.351a34.764,34.764,0,0,1-4.106.449,27.117,27.117,0,0,0-4.326.532,17.439,17.439,0,0,0-4.685,2.017c-.771.428-1.57.869-2.414,1.252a45.512,45.512,0,0,1-4.306,1.625A31.032,31.032,0,0,0,56.7,30.934a34.134,34.134,0,0,0-7.172,6.506l-.28.307c-2.406,2.653-4.857,5.21-7.291,7.594-.983.962-1.946,1.853-2.877,2.713a63.423,63.423,0,0,0-5.046,5.018Z" transform="translate(-18.384 -18.544)" fill="url(#linear-gradient-10)"/>
    </g>
    <g id="Group_12" data-name="Group 12" transform="translate(32.224 11.457)">
      <path id="Path_20" data-name="Path 20" d="M96.512,168.347a79.119,79.119,0,0,1-14.954-1.426,77.936,77.936,0,0,1-28.22-11.462,75.432,75.432,0,0,1-21.426-21.177,73.21,73.21,0,0,1-11-26.578,72.264,72.264,0,0,1,.079-28.636A73.042,73.042,0,0,1,32.81,51.707,75.451,75.451,0,0,1,54.654,30.938,78.115,78.115,0,0,1,82.066,20.27a79.175,79.175,0,0,1,29.541.077,77.882,77.882,0,0,1,28.22,11.459,75.406,75.406,0,0,1,21.426,21.18,73.177,73.177,0,0,1,11,26.575,72.263,72.263,0,0,1-.079,28.636,73.043,73.043,0,0,1-11.823,27.361,75.5,75.5,0,0,1-21.844,20.772A78.213,78.213,0,0,1,111.1,167,79.744,79.744,0,0,1,96.512,168.347ZM96.7,19.1c-24.662,0-48.909,11.453-63.762,32.688a72.24,72.24,0,0,0-11.876,55.888,73.96,73.96,0,0,0,32.365,47.662,78.354,78.354,0,0,0,57.646,11.514,76.6,76.6,0,0,0,49.163-31.377c23.8-34.024,14.61-80.476-20.486-103.55A78.212,78.212,0,0,0,96.7,19.1Z" transform="translate(-19.515 -18.918)" fill="url(#linear-gradient-11)"/>
    </g>
    <g id="Group_13" data-name="Group 13" transform="translate(33.008 12.102)">
      <path id="Path_21" data-name="Path 21" d="M93.349,166.441H93.23a30.851,30.851,0,0,1-5.088-.4c-1.946-.325-3.722-.79-5.6-1.28-.593-.156-1.194-.312-1.813-.468l-.528-.134a43.094,43.094,0,0,1-6.884-2.133c-.178-.077-.356-.153-.534-.227-.133-.057-.268-.112-.4-.172-1.607-.695-3.168-1.444-4.817-2.24-1.355-.651-2.756-1.324-4.182-1.963-1.494-.673-2.959-1.263-4.38-1.838a66.155,66.155,0,0,1-7.167-3.23c-7.33-4-12.676-10.465-16.513-15.653a63.519,63.519,0,0,1-5.035-7.941,55.317,55.317,0,0,1-3.614-9.112c-.553-1.731-1-3.495-1.474-5.362-.291-1.151-.593-2.341-.929-3.56-.3-1.036-.621-2.073-.929-3.074a65.456,65.456,0,0,1-2.465-9.71c-.107-.733-.229-1.474-.344-2.188a37.011,37.011,0,0,1-.706-8.174,54.737,54.737,0,0,1,3.439-15.726c.768-2.106,1.649-4.217,2.62-6.276.536-1.149,1.144-2.3,1.728-3.421.33-.629.669-1.277,1-1.922l.322-.637a51.82,51.82,0,0,1,4.315-7.482h0a47.077,47.077,0,0,1,7.361-7.591l.232-.205a64.886,64.886,0,0,1,5.08-4.178c1.251-.889,2.587-1.8,3.877-2.691,2.389-1.638,4.86-3.331,7.124-5.067l.754-.582c3.747-2.877,7.282-5.6,12.018-7.553A22.554,22.554,0,0,1,75.1,22.961a30.894,30.894,0,0,0,4.569-.946c.2-.063.407-.123.61-.183a75.282,75.282,0,0,1,11.187-2.406c7.226-.965,14.381.64,21.036,2.521a42.246,42.246,0,0,1,5.839,2.286c1.581.714,3.213,1.449,5.071,2.092.3.107.613.2.915.293l.15.044a92.121,92.121,0,0,1,9.047,3.284,34.965,34.965,0,0,1,7.155,3.889,57.247,57.247,0,0,1,7.613,6.913,146.5,146.5,0,0,1,12.526,14.972,71.21,71.21,0,0,1,5.066,8.059,38.815,38.815,0,0,1,3.668,11.346,105.026,105.026,0,0,1,1.482,13.446,94.359,94.359,0,0,1-.051,11.622,52.446,52.446,0,0,1-2.705,14.233,78.738,78.738,0,0,1-5.421,11.094c-.788,1.406-1.5,2.852-2.183,4.247-.813,1.663-1.655,3.377-2.629,5.015a27.685,27.685,0,0,1-3.253,4.252c-.813.913-1.655,1.827-2.465,2.71-.712.774-1.446,1.575-2.157,2.368l-.353.391A50.261,50.261,0,0,1,143.2,151a24.908,24.908,0,0,1-4.323,2.606,95.179,95.179,0,0,1-10.287,4.531c-1.536.533-3.069.963-4.7,1.419-1.522.427-3.095.87-4.724,1.414-1.519.509-2.911,1.1-4.258,1.679a29.855,29.855,0,0,1-8.536,2.631q-.834.1-1.663.211A91.063,91.063,0,0,1,93.349,166.441ZM33.373,52.207a51.887,51.887,0,0,0-4.3,7.46l-.322.637c-.328.648-.669,1.3-1,1.925-.585,1.118-1.189,2.272-1.725,3.415-.969,2.056-1.847,4.165-2.615,6.262a54.558,54.558,0,0,0-3.428,15.685,37.089,37.089,0,0,0,.7,8.141c.119.716.24,1.455.347,2.19a65.6,65.6,0,0,0,2.459,9.689c.308,1,.627,2.037.932,3.079.336,1.22.638,2.412.929,3.563.472,1.865.918,3.626,1.471,5.354a55.315,55.315,0,0,0,3.6,9.087,63.747,63.747,0,0,0,5.023,7.922c3.829,5.174,9.16,11.625,16.462,15.609a66.461,66.461,0,0,0,7.152,3.221c1.42.574,2.889,1.168,4.385,1.84,1.426.64,2.827,1.313,4.182,1.966,1.649.793,3.208,1.542,4.814,2.237.133.057.265.112.4.17.178.077.356.15.534.23a43.15,43.15,0,0,0,6.859,2.122l.528.134c.618.156,1.22.312,1.813.468,1.878.489,3.651.954,5.591,1.28a30.822,30.822,0,0,0,5.06.394h.119a90.7,90.7,0,0,0,11.34-.952c.556-.071,1.11-.142,1.666-.211a29.785,29.785,0,0,0,8.494-2.62c1.35-.574,2.745-1.17,4.269-1.682,1.632-.547,3.208-.99,4.732-1.417,1.621-.457,3.154-.886,4.684-1.416a95.124,95.124,0,0,0,10.27-4.523,24.736,24.736,0,0,0,4.3-2.59,50.139,50.139,0,0,0,6.6-6.478l.353-.391c.712-.793,1.449-1.594,2.16-2.368.81-.883,1.649-1.794,2.465-2.707a27.805,27.805,0,0,0,3.233-4.228c.971-1.633,1.81-3.347,2.623-5,.686-1.4,1.395-2.847,2.186-4.255a78.448,78.448,0,0,0,5.413-11.075,52.28,52.28,0,0,0,2.7-14.192,93.521,93.521,0,0,0,.048-11.6A104.174,104.174,0,0,0,169.4,75.15a38.655,38.655,0,0,0-3.651-11.3,70.886,70.886,0,0,0-5.057-8.042,146.176,146.176,0,0,0-12.512-14.955,56.936,56.936,0,0,0-7.593-6.9,34.616,34.616,0,0,0-7.121-3.869,91.569,91.569,0,0,0-9.033-3.279l-.15-.044c-.3-.093-.613-.189-.921-.3-1.864-.645-3.5-1.384-5.083-2.095a41.9,41.9,0,0,0-5.82-2.281c-6.636-1.876-13.771-3.478-20.972-2.516a75.363,75.363,0,0,0-11.162,2.4c-.2.06-.4.12-.607.183a31.391,31.391,0,0,1-4.594.952,22.44,22.44,0,0,0-5.371,1.28c-4.713,1.947-8.242,4.66-11.978,7.534l-.757.58c-2.267,1.739-4.738,3.435-7.13,5.073-1.29.886-2.626,1.8-3.877,2.691a65.5,65.5,0,0,0-5.066,4.167l-.232.205a47.118,47.118,0,0,0-7.339,7.567Z" transform="translate(-19.792 -19.136)" fill="url(#linear-gradient-12)"/>
    </g>
    <g id="Group_14" data-name="Group 14" transform="translate(33.624 12.697)">
      <path id="Path_22" data-name="Path 22" d="M90.921,164.582A19.3,19.3,0,0,1,86,164.014a34.421,34.421,0,0,1-4.035-1.4c-.94-.372-1.917-.757-2.993-1.106-.514-.167-1.028-.325-1.533-.484a23.854,23.854,0,0,1-5.721-2.308c-.175-.107-.353-.21-.528-.311-.1-.063-.212-.123-.316-.186-.788-.464-1.59-.964-2.366-1.448a52.987,52.987,0,0,0-6.187-3.469,41.182,41.182,0,0,0-6.24-2.128,39.837,39.837,0,0,1-5.642-1.885c-6.879-3.035-11.354-9.154-15.705-15.691a55.005,55.005,0,0,1-4.492-8.02,32.106,32.106,0,0,1-1.971-7.231c-.085-.451-.169-.9-.26-1.363-.186-.956-.328-1.92-.477-2.945a44.818,44.818,0,0,0-1.087-5.682,58.92,58.92,0,0,0-2.123-5.573,38.8,38.8,0,0,1-2.219-6.206c-.226-.989-.548-1.961-.858-2.9a17.834,17.834,0,0,1-1.234-6.316,43.746,43.746,0,0,1,3.753-15.42c.819-1.975,1.776-4.016,2.846-6.067.4-.762.836-1.53,1.262-2.275.539-.94,1.1-1.915,1.587-2.912.333-.686.647-1.371.949-2.035a30.3,30.3,0,0,1,3.38-6.089l.065.046-.065-.046a30.205,30.205,0,0,1,7.147-6.316c.316-.224.633-.448.946-.672.508-.363,1.036-.757,1.547-1.136a38.066,38.066,0,0,1,4.207-2.852c4-2.183,8.18-4.562,11.411-7.572.909-.85,1.754-1.7,2.572-2.532,2.581-2.611,5.018-5.078,8.979-6.87a12,12,0,0,1,5-.792,14.377,14.377,0,0,0,5.17-.74l.025-.011c.195-.074.392-.148.587-.219A71.685,71.685,0,0,1,92.658,19.71c7.415-1.379,14.409,1.341,20.582,3.734l.4.158a20.879,20.879,0,0,1,4.329,2.475,21.845,21.845,0,0,0,5.647,3.043c.339.115.686.2,1.025.279l.082.019c3.307.795,6.489,1.707,9.459,2.718a22.638,22.638,0,0,1,7.452,3.751,39.817,39.817,0,0,1,6.4,7.072c1.909,2.519,4.188,5.269,6.393,7.93,1.895,2.286,3.854,4.652,5.6,6.887a68.3,68.3,0,0,1,5.354,7.6,24.178,24.178,0,0,1,2.939,11.025c.274,3.9.353,8.009.441,12.364l.011.615c.085,3.644.13,7.553-.1,11.457-.274,4.477-.731,9.618-2.716,13.959a51.983,51.983,0,0,1-4.114,7.04c-.638.97-1.3,1.972-1.962,3.043a30.277,30.277,0,0,0-2.476,5.42c-.469,1.237-.952,2.519-1.553,3.731a17.41,17.41,0,0,1-3.338,4.3l-.463.47c-1.46,1.483-2.971,3.021-4.329,4.641-.463.549-.912,1.106-1.35,1.644a30.191,30.191,0,0,1-5.441,5.627,12.666,12.666,0,0,1-4.436,2.076c-1.135.331-2.338.732-3.612,1.158a59.437,59.437,0,0,1-6.884,2.01c-1.017.208-2.027.347-3.1.5a34.645,34.645,0,0,0-6.367,1.33,19.988,19.988,0,0,0-4.6,2.393,15.542,15.542,0,0,1-7.353,2.942c-1.61.164-3.222.4-4.781.617a64.372,64.372,0,0,1-8.629.841ZM96.769,19.494a22.412,22.412,0,0,0-4.083.369A71.43,71.43,0,0,0,81.436,23c-.195.071-.39.145-.585.219l-.025.008a14.56,14.56,0,0,1-5.227.754,11.833,11.833,0,0,0-4.93.779c-3.933,1.778-6.359,4.234-8.931,6.835-.819.828-1.666,1.685-2.575,2.535-3.244,3.024-7.432,5.409-11.444,7.6a37.517,37.517,0,0,0-4.188,2.841c-.511.38-1.042.773-1.55,1.136-.313.224-.63.448-.946.672a30.155,30.155,0,0,0-7.113,6.283,30.272,30.272,0,0,0-3.363,6.059c-.3.664-.616,1.352-.949,2.041-.491,1-1.05,1.978-1.593,2.92-.424.743-.864,1.511-1.259,2.27C25.691,68,24.737,70.03,23.918,72a43.656,43.656,0,0,0-3.741,15.368A17.652,17.652,0,0,0,21.4,93.629c.311.945.635,1.923.864,2.92a38.36,38.36,0,0,0,2.208,6.179,58.754,58.754,0,0,1,2.129,5.592,44.828,44.828,0,0,1,1.093,5.7c.15,1.022.288,1.986.477,2.937.088.459.175.912.257,1.366a32.038,32.038,0,0,0,1.962,7.2,54.846,54.846,0,0,0,4.478,8c4.34,6.515,8.8,12.615,15.638,15.633a40.055,40.055,0,0,0,5.616,1.877,42.041,42.041,0,0,1,6.269,2.133,53.856,53.856,0,0,1,6.2,3.48c.774.484,1.576.983,2.363,1.448.1.063.209.123.313.183.181.1.359.208.534.317a23.72,23.72,0,0,0,5.681,2.292c.508.156,1.022.314,1.536.481,1.081.352,2.058.738,3,1.112a33.773,33.773,0,0,0,4.015,1.39,19.543,19.543,0,0,0,5.119.56,64.572,64.572,0,0,0,8.6-.841c1.561-.224,3.177-.453,4.789-.617a15.171,15.171,0,0,0,7.279-2.917,20.128,20.128,0,0,1,4.637-2.409,34.685,34.685,0,0,1,6.4-1.339c1.067-.148,2.075-.29,3.086-.494a59.269,59.269,0,0,0,6.864-2.005c1.276-.426,2.479-.83,3.62-1.161a12.522,12.522,0,0,0,4.385-2.051,29.959,29.959,0,0,0,5.41-5.6c.438-.541.889-1.1,1.35-1.647,1.364-1.625,2.875-3.163,4.337-4.652l.463-.47a17.23,17.23,0,0,0,3.309-4.256c.6-1.2,1.081-2.483,1.547-3.718a30.46,30.46,0,0,1,2.491-5.447c.666-1.071,1.327-2.073,1.965-3.046a52,52,0,0,0,4.1-7.018c1.977-4.319,2.431-9.443,2.705-13.907.232-3.9.184-7.8.1-11.443l-.011-.615c-.088-4.352-.167-8.463-.443-12.355a24.007,24.007,0,0,0-2.917-10.957,68.015,68.015,0,0,0-5.342-7.589c-1.739-2.235-3.7-4.6-5.594-6.887-2.205-2.661-4.484-5.411-6.4-7.933a39.012,39.012,0,0,0-6.373-7.045,22.457,22.457,0,0,0-7.4-3.723c-2.968-1.008-6.147-1.92-9.445-2.713l-.085-.019c-.342-.082-.695-.167-1.039-.284a22,22,0,0,1-5.687-3.062,20.783,20.783,0,0,0-4.295-2.459l-.4-.156C108.176,21.65,102.631,19.494,96.769,19.494Z" transform="translate(-20.01 -19.338)" fill="url(#linear-gradient-13)"/>
    </g>
    <g id="Group_15" data-name="Group 15" transform="translate(34.213 13.294)">
      <path id="Path_23" data-name="Path 23" d="M88.7,162.721a14.3,14.3,0,0,1-4.817-.737,21.657,21.657,0,0,1-3.448-1.664,26.246,26.246,0,0,0-3.2-1.591c-.624-.248-1.248-.475-1.852-.693a16.232,16.232,0,0,1-5.241-2.622c-.161-.136-.333-.27-.5-.4-.088-.065-.169-.131-.254-.2-.508-.393-1.025-.808-1.522-1.209a31.558,31.558,0,0,0-6.585-4.42,24.639,24.639,0,0,0-6.989-1.817,28.707,28.707,0,0,1-5.232-1.141c-7.082-2.442-11.173-9.4-14.463-14.986l-.438-.745a47.748,47.748,0,0,1-3.945-8.1,18.9,18.9,0,0,1-.8-6.14c-.008-.63-.017-1.285-.051-1.943-.034-.641-.04-1.291-.045-1.978a23.78,23.78,0,0,0-.681-6.347,31.558,31.558,0,0,0-2.979-6.153,26.247,26.247,0,0,1-2.31-4.622,15.178,15.178,0,0,0-1.3-2.674,10.527,10.527,0,0,1-1.835-5.406c.023-5.864,2.332-11.436,4.066-15.117.892-1.891,1.9-3.807,3.078-5.853.353-.622.751-1.247,1.132-1.853a28.945,28.945,0,0,0,1.838-3.182c.4-.849.731-1.689,1.056-2.5A21.017,21.017,0,0,1,34.354,53h0c2.058-2.628,4.752-4.118,7.356-5.558.486-.27.988-.548,1.471-.824.686-.4,1.409-.854,2.106-1.3a26.3,26.3,0,0,1,4.092-2.3c5.461-2.167,9.329-4.584,11.817-7.387a42.625,42.625,0,0,0,2.722-3.5c1.968-2.729,3.829-5.3,7.613-7.16a8.207,8.207,0,0,1,4.857-.387,9.746,9.746,0,0,0,5.5-.445c.2-.093.407-.183.61-.273a67.809,67.809,0,0,1,11.371-3.877c7.279-1.711,14.113,1.776,19.6,4.581.455.229.9.456,1.336.677a13.542,13.542,0,0,1,3.549,2.868,12.861,12.861,0,0,0,5.492,3.79,8.319,8.319,0,0,0,1.1.251l.051.008c3.558.644,6.788,1.348,9.869,2.15,2.612.682,5.58,1.577,7.748,3.616a23.338,23.338,0,0,1,4.572,6.167c.2.349.4.7.61,1.067,2.431,4.172,6.458,8.849,10.013,12.978l1.446,1.681c.24.281.48.562.72.84a54.908,54.908,0,0,1,4.919,6.312c2.375,3.727,2.4,7.19,2.208,10.7-.048.911-.1,1.842-.161,2.789-.186,3.086-.378,6.276-.412,9.722-.011,1.081-.014,2.175-.014,3.272-.006,2.63-.011,5.351-.138,8.017-.229,4.516-.486,9.638-2.736,13.687a34.338,34.338,0,0,1-3.784,5.261c-.963,1.173-1.957,2.385-2.942,3.812a16.99,16.99,0,0,0-2.236,5.7,26.079,26.079,0,0,1-1.014,3.34,12.544,12.544,0,0,1-3.425,4.339,44.97,44.97,0,0,0-4.956,5.152c-.562.709-1.087,1.441-1.6,2.148a22.2,22.2,0,0,1-5.009,5.5,8.155,8.155,0,0,1-4.557,1.547,41.722,41.722,0,0,0-4.766.838,40.478,40.478,0,0,1-5.935.971c-.827.046-1.652.035-2.524.027a20.027,20.027,0,0,0-6.989.8,11.339,11.339,0,0,0-4.317,2.92c-1.638,1.55-3.329,3.154-6.791,3.435-2,.164-3.993.5-5.916.835a51.919,51.919,0,0,1-7.754.922C88.981,162.721,88.84,162.721,88.7,162.721ZM34.487,53.1a20.938,20.938,0,0,0-2.939,5.588c-.328.816-.664,1.659-1.062,2.513a29.741,29.741,0,0,1-1.847,3.2c-.381.6-.779,1.225-1.129,1.842-1.177,2.044-2.18,3.957-3.069,5.845-1.731,3.667-4.032,9.218-4.055,15.049A10.437,10.437,0,0,0,22.2,92.465a15.435,15.435,0,0,1,1.319,2.7,26.205,26.205,0,0,0,2.3,4.6,31.6,31.6,0,0,1,2.993,6.186,23.936,23.936,0,0,1,.689,6.391c.006.685.011,1.332.042,1.97.037.66.045,1.315.051,1.951a18.921,18.921,0,0,0,.791,6.088,47.829,47.829,0,0,0,3.933,8.069l.438.745c3.275,5.564,7.35,12.489,14.373,14.912a28.463,28.463,0,0,0,5.2,1.132,24.663,24.663,0,0,1,7.031,1.834,31.593,31.593,0,0,1,6.622,4.44c.5.4,1.014.816,1.519,1.209l.254.2c.167.128.339.262.5.4a16.224,16.224,0,0,0,5.187,2.592c.607.216,1.234.445,1.861.693a26.313,26.313,0,0,1,3.213,1.6,21.816,21.816,0,0,0,3.422,1.654,14.341,14.341,0,0,0,5.179.723,51.353,51.353,0,0,0,7.728-.92c1.926-.33,3.916-.668,5.93-.835,3.4-.278,5.071-1.861,6.686-3.389a11.431,11.431,0,0,1,4.382-2.958,20.391,20.391,0,0,1,7.045-.808c.867.014,1.689.022,2.513-.027a39.91,39.91,0,0,0,5.907-.966,42.527,42.527,0,0,1,4.789-.843,7.875,7.875,0,0,0,4.47-1.514,21.952,21.952,0,0,0,4.973-5.466c.511-.709,1.039-1.441,1.6-2.153a45.092,45.092,0,0,1,4.975-5.171,12.452,12.452,0,0,0,3.386-4.281,25.8,25.8,0,0,0,1.005-3.318,17.1,17.1,0,0,1,2.262-5.752c.985-1.433,1.985-2.647,2.951-3.823a34.426,34.426,0,0,0,3.767-5.236c2.231-4.017,2.488-9.119,2.714-13.619.127-2.66.133-5.378.138-8.009,0-1.1.006-2.191.017-3.274.034-3.449.226-6.642.409-9.728.059-.95.113-1.877.164-2.789.189-3.49.164-6.925-2.183-10.612a55.064,55.064,0,0,0-4.9-6.292c-.243-.278-.483-.559-.723-.84-.469-.548-.954-1.111-1.446-1.681-3.558-4.131-7.59-8.816-10.03-13-.209-.363-.412-.718-.613-1.07a23.154,23.154,0,0,0-4.538-6.126c-2.14-2.014-5.085-2.9-7.675-3.575-3.078-.8-6.3-1.506-9.857-2.147l-.051-.008a8.55,8.55,0,0,1-1.124-.259,13.014,13.014,0,0,1-5.563-3.831,13.274,13.274,0,0,0-3.5-2.835q-.656-.332-1.336-.679c-5.749-2.936-12.263-6.265-19.483-4.568a67.869,67.869,0,0,0-11.34,3.869c-.2.087-.407.18-.61.273a9.893,9.893,0,0,1-5.591.458,8.082,8.082,0,0,0-4.758.371c-3.747,1.836-5.594,4.4-7.551,7.108a43.291,43.291,0,0,1-2.733,3.515c-2.507,2.821-6.393,5.253-11.879,7.43a26.343,26.343,0,0,0-4.066,2.281c-.7.445-1.42.906-2.109,1.3-.486.278-.988.557-1.474.827-2.589,1.433-5.266,2.914-7.308,5.515Z" transform="translate(-20.219 -19.54)" fill="url(#linear-gradient-14)"/>
    </g>
    <g id="Group_16" data-name="Group 16" transform="translate(34.792 13.869)">
      <path id="Path_24" data-name="Path 24" d="M86.557,160.879a11.434,11.434,0,0,1-4.786-.91,15.842,15.842,0,0,1-3.1-1.976,17.265,17.265,0,0,0-3.16-2.031c-.675-.316-1.35-.594-2-.861a12.3,12.3,0,0,1-4.93-2.974c-.141-.164-.294-.322-.441-.474-.073-.074-.147-.15-.22-.226q-.534-.536-1.076-1.093a22.742,22.742,0,0,0-6.585-5.242,17.522,17.522,0,0,0-7.443-1.366,22.629,22.629,0,0,1-5.114-.54c-7.023-1.794-10.566-8.8-13.413-14.433-.234-.458-.46-.9-.683-1.338a38.9,38.9,0,0,1-3.4-8.18,12.324,12.324,0,0,1,.192-5.558c.13-.654.265-1.33.344-2.009.051-.452.121-.91.195-1.393a14.976,14.976,0,0,0-.085-6.632,21.143,21.143,0,0,0-3.792-6.215,19.932,19.932,0,0,1-2.44-3.557,9.729,9.729,0,0,0-1.691-2.221c-1.206-1.314-2.448-2.674-2.5-4.724C20.3,81.356,22.7,76.085,24.812,72.116c.957-1.8,2.039-3.647,3.3-5.645.342-.542.723-1.088,1.1-1.614a20.486,20.486,0,0,0,2-3.263c.424-.943.74-1.87,1.045-2.767a15.814,15.814,0,0,1,2.668-5.372l.068.049-.068-.049c2.126-2.622,5-3.835,7.774-5.007.621-.262,1.209-.51,1.79-.774.8-.368,1.658-.837,2.482-1.289a19.944,19.944,0,0,1,4.159-1.913c3.2-.845,9.05-2.9,12.224-7.2a28.629,28.629,0,0,0,2.459-4.225c1.491-2.944,2.9-5.721,6.653-7.7,1.567-.823,3.134-.428,4.792-.008,1.807.455,3.679.927,5.752-.123.2-.106.407-.213.613-.316a65.423,65.423,0,0,1,11.461-4.615c7.438-2.1,14.059,2.205,19.379,5.659.517.333,1.019.66,1.508.97a10.171,10.171,0,0,1,2.945,3.312c1.163,1.769,2.366,3.6,5.159,4.478a6.606,6.606,0,0,0,1.158.218l.037.005c3.753.472,7.116.989,10.281,1.584,2.784.523,5.933,1.267,8.045,3.478a14.725,14.725,0,0,1,3.371,5.841c.186.5.376,1.025.6,1.554,2.112,5.149,7.841,11.233,10.922,14.5q.665.7,1.336,1.393a43.691,43.691,0,0,1,4.591,5.307c2.524,3.633,2.14,6.986,1.477,10.385a79.869,79.869,0,0,0-1.6,12.045c-.082,1.905-.1,3.9-.113,5.817-.014,1.744-.031,3.546-.093,5.3l-.028.752c-.158,4.26-.336,9.088-2.722,12.666a24.537,24.537,0,0,1-3.8,4.241,31.963,31.963,0,0,0-3.578,3.821,11.384,11.384,0,0,0-1.872,5.77,18.178,18.178,0,0,1-.6,3.156c-.6,1.894-2.143,3.219-3.51,4.386a31.947,31.947,0,0,0-5.125,5.187c-.59.8-1.127,1.644-1.643,2.453a17.9,17.9,0,0,1-4.781,5.58,5.852,5.852,0,0,1-4.676,1.014,26.728,26.728,0,0,0-5.289.218,30.213,30.213,0,0,1-5.619.237c-.726-.068-1.446-.188-2.211-.319a14.265,14.265,0,0,0-7.344.144c-1.937.641-2.891,1.976-3.9,3.391-1.319,1.843-2.68,3.751-6.365,3.985a49.321,49.321,0,0,0-6.562,1.009,44.171,44.171,0,0,1-7.37,1.044C86.9,160.879,86.73,160.879,86.557,160.879ZM74.483,25.038a4.057,4.057,0,0,0-1.934.458c-3.707,1.952-5.1,4.707-6.582,7.627a28.577,28.577,0,0,1-2.474,4.247c-3.2,4.339-9.1,6.414-12.32,7.264a20.12,20.12,0,0,0-4.12,1.9c-.827.455-1.68.927-2.493,1.3-.585.264-1.2.523-1.8.774-2.756,1.167-5.608,2.369-7.7,4.955a15.709,15.709,0,0,0-2.643,5.323c-.3.9-.621,1.832-1.05,2.783a20.586,20.586,0,0,1-2.016,3.29c-.367.523-.751,1.066-1.087,1.605-1.265,2-2.344,3.838-3.3,5.634-2.1,3.952-4.5,9.2-4.363,14.732.048,1.987,1.271,3.323,2.454,4.615a9.928,9.928,0,0,1,1.72,2.265,19.831,19.831,0,0,0,2.42,3.524,21.271,21.271,0,0,1,3.818,6.269,15.054,15.054,0,0,1,.093,6.7c-.073.482-.144.935-.195,1.387-.079.684-.215,1.366-.347,2.022a12.194,12.194,0,0,0-.192,5.49,38.761,38.761,0,0,0,3.386,8.139c.223.433.452.883.683,1.341,2.832,5.6,6.356,12.571,13.3,14.343a22.367,22.367,0,0,0,5.074.534,17.678,17.678,0,0,1,7.511,1.385,22.86,22.86,0,0,1,6.638,5.277c.359.368.717.736,1.076,1.093.073.079.147.153.217.226.15.155.3.316.449.48a12.219,12.219,0,0,0,4.862,2.93c.655.267,1.333.545,2.013.864a17.456,17.456,0,0,1,3.191,2.05,15.749,15.749,0,0,0,3.067,1.954,11.684,11.684,0,0,0,5.235.889,43.68,43.68,0,0,0,7.342-1.039,49.083,49.083,0,0,1,6.585-1.011c3.6-.232,4.939-2.1,6.232-3.914a7.936,7.936,0,0,1,3.99-3.453,14.4,14.4,0,0,1,7.432-.15c.76.128,1.477.251,2.2.316a29.837,29.837,0,0,0,5.582-.237,26.494,26.494,0,0,1,5.328-.218,5.707,5.707,0,0,0,4.555-.984,17.691,17.691,0,0,0,4.732-5.53c.52-.815,1.056-1.655,1.652-2.464a31.959,31.959,0,0,1,5.153-5.214c1.412-1.21,2.875-2.459,3.459-4.307a18.289,18.289,0,0,0,.59-3.132c.263-1.99.531-4.048,1.906-5.849a31.861,31.861,0,0,1,3.595-3.841,24.317,24.317,0,0,0,3.778-4.214c2.358-3.538,2.536-8.341,2.694-12.579l.028-.752c.062-1.758.076-3.557.09-5.3.017-1.924.034-3.914.113-5.825a79.719,79.719,0,0,1,1.6-12.067c.655-3.364,1.036-6.681-1.451-10.262a42.643,42.643,0,0,0-4.574-5.285c-.446-.461-.892-.924-1.336-1.4-3.086-3.276-8.832-9.374-10.959-14.55-.217-.534-.409-1.058-.6-1.562a14.534,14.534,0,0,0-3.335-5.781c-2.075-2.175-5.193-2.911-7.949-3.429-3.163-.591-6.523-1.109-10.273-1.584l-.037,0a6.814,6.814,0,0,1-1.189-.226c-2.852-.9-4.072-2.753-5.249-4.546a10.091,10.091,0,0,0-2.9-3.263c-.489-.311-.991-.638-1.508-.97-5.292-3.434-11.876-7.711-19.235-5.637a65.056,65.056,0,0,0-11.43,4.6c-.2.1-.407.21-.61.316-2.132,1.082-4.038.6-5.879.136A11.475,11.475,0,0,0,74.483,25.038Z" transform="translate(-20.424 -19.734)" fill="url(#linear-gradient-15)"/>
    </g>
    <g id="Group_17" data-name="Group 17" transform="translate(35.362 14.457)">
      <path id="Path_25" data-name="Path 25" d="M84.441,159.03a9.665,9.665,0,0,1-4.778-1.086,12.825,12.825,0,0,1-2.832-2.306,13.109,13.109,0,0,0-3.041-2.448c-.709-.384-1.412-.705-2.092-1.016-1.816-.828-3.527-1.612-4.679-3.343-.124-.191-.263-.378-.4-.561l-.175-.24c-.263-.335-.528-.678-.793-1.021-1.8-2.328-3.654-4.735-6.424-6.017-2.846-1.326-5.354-1.092-7.782-.863a18.975,18.975,0,0,1-5.108,0c-7.11-1.217-10.3-8.742-12.622-14.236-.229-.545-.452-1.07-.672-1.571C32.034,122,30.5,118.488,30.2,116.067a9.062,9.062,0,0,1,1.149-5.173,16.119,16.119,0,0,0,.771-1.884c.1-.316.212-.634.325-.961a10.645,10.645,0,0,0,.618-6.76c-.926-2.606-2.886-4.43-4.614-6.041a17.353,17.353,0,0,1-2.558-2.725,7.611,7.611,0,0,0-2-1.7c-1.468-1-3.131-2.143-3.236-4.117-.288-5.372,2.214-10.349,4.7-14.509,1.019-1.707,2.171-3.485,3.53-5.434.336-.485.714-.972,1.081-1.443a15.491,15.491,0,0,0,2.132-3.275,22.055,22.055,0,0,0,.969-2.916A12.6,12.6,0,0,1,35.5,53.9h0c2.214-2.646,5.3-3.6,8.276-4.525.7-.218,1.369-.425,2.022-.653a28.834,28.834,0,0,0,2.79-1.212,16.552,16.552,0,0,1,4.295-1.6c4.411-.634,10.047-2.81,12.633-7.016a22.559,22.559,0,0,0,2.047-4.844c1.059-3.194,2.061-6.213,5.845-8.337,1.55-.871,3.106-.278,4.752.348,1.864.711,3.789,1.448,5.981.218.2-.12.407-.242.613-.362A62.975,62.975,0,0,1,96.3,20.575c7.72-2.518,14.505,2.921,19.461,6.9.474.378.932.746,1.375,1.094a8.814,8.814,0,0,1,2.414,3.779c.884,2.083,1.8,4.236,4.755,5.143a5.543,5.543,0,0,0,1.209.182l.028,0c4,.3,7.494.637,10.693,1.021,2.951.357,6.274.937,8.341,3.341a10.113,10.113,0,0,1,2.4,5.745c.1.588.195,1.2.347,1.813.929,3.828,4.326,8.519,10.388,14.34.57.547,1.158,1.084,1.728,1.606a35.04,35.04,0,0,1,4.487,4.642c2.711,3.586,1.9,6.809.745,10.068a44.41,44.41,0,0,0-2.623,11.577c-.184,2.371-.2,4.868-.215,7.283-.008,1.209-.014,2.456-.042,3.673-.011.389-.02.787-.028,1.19-.085,4.092-.181,8.731-2.739,11.955a18.5,18.5,0,0,1-3.959,3.507,21.208,21.208,0,0,0-4.072,3.55c-1.443,1.707-1.451,3.771-1.46,5.766a13.96,13.96,0,0,1-.229,3.049c-.457,1.96-2.008,3.177-3.5,4.353l-.093.074a24.236,24.236,0,0,0-5.292,5.225c-.61.885-1.138,1.816-1.646,2.72-1.214,2.151-2.361,4.185-4.6,5.69-2,1.35-3.3.947-4.8.482a19.809,19.809,0,0,0-5.577-.485,23.755,23.755,0,0,1-5.534-.411c-.658-.158-1.31-.373-2-.6-2.177-.719-4.648-1.533-7.6-.566-1.951.64-2.677,2.189-3.442,3.831-1.005,2.151-2.044,4.372-5.981,4.56a40.123,40.123,0,0,0-7.006,1.171,38.54,38.54,0,0,1-7.192,1.176C84.845,159.025,84.642,159.03,84.441,159.03ZM54.313,139.779a11.4,11.4,0,0,1,5,1.059c2.81,1.3,4.682,3.724,6.489,6.069.268.343.531.686.8,1.024l.178.242c.133.182.271.37.4.564,1.121,1.693,2.733,2.429,4.6,3.283.683.313,1.389.634,2.1,1.021a13.234,13.234,0,0,1,3.083,2.478,12.487,12.487,0,0,0,2.79,2.276,9.936,9.936,0,0,0,5.294,1.051,38.713,38.713,0,0,0,7.155-1.171,39.882,39.882,0,0,1,7.037-1.176c3.829-.182,4.845-2.358,5.828-4.46.748-1.6,1.522-3.259,3.547-3.923,3.01-.983,5.509-.161,7.714.566.689.226,1.338.441,1.988.6a24.247,24.247,0,0,0,5.492.4,19.855,19.855,0,0,1,5.633.5,4.546,4.546,0,0,0,4.639-.46c2.2-1.481,3.338-3.5,4.541-5.633.511-.9,1.039-1.84,1.657-2.731a24.318,24.318,0,0,1,5.325-5.263l.093-.073c1.474-1.157,3-2.355,3.442-4.258a13.924,13.924,0,0,0,.226-3.011c.008-2.026.017-4.119,1.5-5.875a21.533,21.533,0,0,1,4.106-3.58,18.306,18.306,0,0,0,3.922-3.471c2.524-3.18,2.62-7.789,2.7-11.854.008-.406.017-.8.028-1.192.028-1.214.037-2.461.045-3.667.014-2.418.031-4.92.215-7.3a44.556,44.556,0,0,1,2.632-11.62c1.18-3.335,1.943-6.387-.72-9.91a35,35,0,0,0-4.464-4.618c-.57-.523-1.161-1.062-1.734-1.609-6.085-5.845-9.5-10.561-10.436-14.422-.152-.626-.251-1.236-.35-1.827a9.944,9.944,0,0,0-2.363-5.66c-2.027-2.358-5.309-2.93-8.225-3.281-3.2-.384-6.692-.719-10.685-1.021l-.028,0a5.525,5.525,0,0,1-1.248-.191c-3.038-.931-3.967-3.123-4.868-5.241a8.669,8.669,0,0,0-2.361-3.711c-.443-.348-.9-.716-1.375-1.094-4.924-3.948-11.667-9.355-19.291-6.866a62.892,62.892,0,0,0-11.518,5.331q-.3.176-.61.359c-2.27,1.274-4.326.487-6.142-.2-1.6-.61-3.117-1.19-4.594-.359-3.724,2.091-4.716,5.078-5.766,8.241a22.688,22.688,0,0,1-2.061,4.879c-2.62,4.258-8.31,6.458-12.76,7.1a16.437,16.437,0,0,0-4.244,1.582,29.686,29.686,0,0,1-2.81,1.22c-.652.229-1.321.436-2.027.653C40.875,50.453,37.819,51.4,35.64,54h0a12.488,12.488,0,0,0-2.409,5.173,22.743,22.743,0,0,1-.974,2.935A15.686,15.686,0,0,1,30.1,65.424c-.364.468-.743.953-1.073,1.435-1.355,1.947-2.507,3.722-3.524,5.426-2.474,4.136-4.958,9.085-4.676,14.413.1,1.889,1.728,3,3.163,3.983a7.778,7.778,0,0,1,2.05,1.748,17.207,17.207,0,0,0,2.533,2.7c1.742,1.623,3.716,3.463,4.659,6.115a10.789,10.789,0,0,1-.621,6.864c-.113.324-.223.643-.322.956a16.6,16.6,0,0,1-.779,1.906,8.923,8.923,0,0,0-1.135,5.08c.3,2.4,1.83,5.9,2.841,8.211.217.5.44,1.029.672,1.574,2.31,5.459,5.472,12.932,12.486,14.133a19.067,19.067,0,0,0,5.06-.005C52.376,139.868,53.33,139.779,54.313,139.779Z" transform="translate(-20.626 -19.933)" fill="url(#linear-gradient-16)"/>
    </g>
    <g id="Group_18" data-name="Group 18" transform="translate(35.923 15.018)">
      <path id="Path_26" data-name="Path 26" d="M82.346,157.2a8.469,8.469,0,0,1-4.783-1.259,10.98,10.98,0,0,1-2.6-2.649,10.746,10.746,0,0,0-2.886-2.85c-.726-.446-1.449-.808-2.146-1.159-1.864-.938-3.47-1.746-4.459-3.726-.11-.22-.229-.435-.344-.647l-.138-.25c-.2-.318-.4-.642-.6-.971-1.638-2.676-3.329-5.442-6.178-6.769-2.987-1.4-5.453-.889-8.062-.343a17.2,17.2,0,0,1-5.165.528c-7.288-.677-9.976-8.528-11.936-14.258-.192-.557-.373-1.09-.551-1.591-.1-.272-.2-.563-.313-.865-.827-2.284-1.96-5.412-1.994-7.47s1.118-3.552,2.135-4.868A14.131,14.131,0,0,0,33.5,106.37c.11-.2.226-.4.344-.606,1.039-1.806,2.217-3.851,1.426-6.81-1.011-2.709-3.383-4.318-5.475-5.738a17.123,17.123,0,0,1-2.635-2.026,7.223,7.223,0,0,0-2.217-1.172c-1.835-.748-3.916-1.6-4.077-3.516-.44-5.24,2.287-10.122,5.015-14.206,1.087-1.629,2.315-3.337,3.758-5.224.336-.443.717-.887,1.087-1.316a12.517,12.517,0,0,0,2.248-3.247,17.216,17.216,0,0,0,.861-3.013,10.391,10.391,0,0,1,2.242-5.142c2.315-2.687,5.774-3.424,8.827-4.074.771-.163,1.5-.318,2.2-.5a24.892,24.892,0,0,0,3.067-1.1,14.276,14.276,0,0,1,4.464-1.311c4.84-.169,10.75-2.344,13.04-6.831a19.69,19.69,0,0,0,1.564-5.406c.621-3.315,1.265-6.742,5.108-9.029,1.545-.922,3.089-.136,4.727.7,1.914.968,3.891,1.972,6.2.566.2-.136.4-.272.61-.405a61.413,61.413,0,0,1,11.645-6.078c8.093-2.981,14.8,3.541,19.7,8.3.376.367.74.718,1.087,1.052,1.124,1.077,1.508,2.622,1.914,4.256.6,2.39,1.209,4.862,4.32,5.792a4.986,4.986,0,0,0,1.268.147c4.346.125,7.875.272,11.117.46,3.115.182,6.61.593,8.638,3.206a7.7,7.7,0,0,1,1.525,5.757,16.893,16.893,0,0,0,.006,1.963c.421,5.284,6.356,11.15,9.858,14.174.655.566,1.341,1.115,2,1.645a29.006,29.006,0,0,1,4.5,4.155c2.923,3.568,1.672,6.649.008,9.752a30.106,30.106,0,0,0-3.645,11.109,77.235,77.235,0,0,0-.3,8.237c0,.851,0,1.705-.008,2.551-.008.47-.008.957-.008,1.455-.011,3.981-.023,8.493-2.776,11.422a14.941,14.941,0,0,1-4.188,2.9,15.886,15.886,0,0,0-4.5,3.152c-1.528,1.64-1.271,3.72-1.022,5.733a11.383,11.383,0,0,1,.116,2.97c-.311,2.042-1.92,3.2-3.476,4.321l-.206.15a20.543,20.543,0,0,0-5.458,5.259,29.106,29.106,0,0,0-1.621,2.964c-1.107,2.225-2.149,4.324-4.442,5.828-2.106,1.381-3.383.729-4.862-.027l-.051-.027a16.57,16.57,0,0,0-5.774-1.21,20.667,20.667,0,0,1-5.549-1.031c-.6-.239-1.206-.538-1.847-.854-2.2-1.085-4.69-2.314-7.8-1.305-1.957.639-2.448,2.393-2.971,4.251-.692,2.467-1.409,5.017-5.611,5.156a33.935,33.935,0,0,0-7.347,1.324,35.03,35.03,0,0,1-7.11,1.316C82.795,157.191,82.569,157.2,82.346,157.2ZM54.2,135.843a9.386,9.386,0,0,1,4.094.914c2.9,1.352,4.605,4.142,6.254,6.839l.6.974.141.253c.119.218.237.432.347.655.96,1.925,2.544,2.722,4.377,3.644.7.351,1.426.715,2.16,1.167a10.856,10.856,0,0,1,2.937,2.894,10.677,10.677,0,0,0,2.558,2.608A8.665,8.665,0,0,0,83.018,157a34.979,34.979,0,0,0,7.071-1.311,34.2,34.2,0,0,1,7.39-1.333c4.063-.133,4.764-2.619,5.438-5.023.534-1.9,1.039-3.7,3.089-4.373,3.179-1.033,5.71.215,7.94,1.314.635.315,1.237.612,1.835.851a20.567,20.567,0,0,0,5.492,1.017,16.64,16.64,0,0,1,5.842,1.232l.054.025c1.482.761,2.657,1.362,4.673.038,2.248-1.477,3.281-3.557,4.377-5.76a28.908,28.908,0,0,1,1.632-2.978,20.567,20.567,0,0,1,5.5-5.308l.206-.15c1.528-1.1,3.1-2.238,3.4-4.2a11.317,11.317,0,0,0-.116-2.926c-.254-2.05-.514-4.172,1.07-5.869a15.9,15.9,0,0,1,4.543-3.19,14.734,14.734,0,0,0,4.137-2.866c2.708-2.874,2.719-7.351,2.728-11.3,0-.5,0-.987.008-1.458.011-.846.011-1.7.011-2.548a76.161,76.161,0,0,1,.3-8.256,30.208,30.208,0,0,1,3.662-11.172c1.635-3.048,2.863-6.078.011-9.559a28.932,28.932,0,0,0-4.473-4.131c-.666-.53-1.353-1.08-2.01-1.648-3.521-3.043-9.49-8.947-9.917-14.293a16.645,16.645,0,0,1-.006-1.985,7.474,7.474,0,0,0-1.488-5.643c-1.982-2.551-5.427-2.956-8.5-3.133-3.239-.19-6.766-.334-11.1-.462a5,5,0,0,1-1.33-.155c-3.213-.957-3.84-3.481-4.444-5.918-.4-1.61-.779-3.133-1.866-4.172-.35-.334-.712-.688-1.087-1.055-4.862-4.726-11.521-11.2-19.5-8.259A60.939,60.939,0,0,0,85.991,27.1c-.206.131-.409.267-.613.4-2.4,1.466-4.515.392-6.382-.557-1.59-.8-3.092-1.566-4.546-.7-3.772,2.246-4.38,5.482-5.023,8.909a19.761,19.761,0,0,1-1.578,5.455c-2.324,4.552-8.3,6.761-13.2,6.929a14.115,14.115,0,0,0-4.4,1.3,24.581,24.581,0,0,1-3.089,1.11c-.709.182-1.437.337-2.211.5-3.171.674-6.449,1.373-8.725,4.014l-.071-.057.071.057a10.219,10.219,0,0,0-2.2,5.064,17.447,17.447,0,0,1-.87,3.043,12.676,12.676,0,0,1-2.279,3.3c-.384.446-.748.868-1.081,1.308-1.437,1.885-2.666,3.59-3.75,5.216C23.331,76.45,20.62,81.3,21.055,86.488c.152,1.811,2.18,2.638,3.964,3.367A7.28,7.28,0,0,1,27.3,91.07a17.093,17.093,0,0,0,2.6,2c2.115,1.433,4.515,3.059,5.546,5.828.813,3.038-.384,5.115-1.44,6.951-.119.2-.232.405-.344.6a14.046,14.046,0,0,1-1.192,1.7c-1.048,1.357-2.132,2.76-2.1,4.759.034,2.031,1.161,5.142,1.985,7.413.11.3.215.6.313.868.178.5.359,1.036.551,1.591,1.946,5.686,4.608,13.472,11.78,14.138a16.942,16.942,0,0,0,5.105-.525A19.932,19.932,0,0,1,54.2,135.843Z" transform="translate(-20.824 -20.123)" fill="url(#linear-gradient-17)"/>
    </g>
    <g id="Group_19" data-name="Group 19" transform="translate(36.478 15.593)">
      <path id="Path_27" data-name="Path 27" d="M80.27,155.353a7.611,7.611,0,0,1-4.806-1.434,9.934,9.934,0,0,1-2.392-3,9.443,9.443,0,0,0-2.714-3.243,24.322,24.322,0,0,0-2.18-1.3c-1.844-1.008-3.436-1.877-4.258-4.107-.093-.25-.192-.5-.291-.744l-.1-.255c-.15-.3-.3-.611-.449-.924-1.463-3.023-2.973-6.147-5.885-7.516-3.12-1.472-5.642-.668-8.313.187a16.548,16.548,0,0,1-5.071,1.043l-.175,0c-7.545-.144-9.807-8.752-11.3-14.45-.133-.5-.257-.986-.381-1.434s-.271-.945-.426-1.475c-.672-2.276-1.511-5.109-1.333-6.94.2-2.059,1.773-3.4,3.16-4.588a14.094,14.094,0,0,0,1.545-1.453l.254-.3c1.488-1.725,3.177-3.678,2.344-6.815-1.1-2.828-3.948-4.183-6.458-5.381a19.4,19.4,0,0,1-2.584-1.38,7.9,7.9,0,0,0-2.321-.684c-2.146-.445-4.814-1-5.032-2.879-.6-5.139,2.355-9.914,5.328-13.9,1.152-1.548,2.457-3.189,3.987-5.017.339-.407.723-.812,1.1-1.206a10.549,10.549,0,0,0,2.361-3.2,14.155,14.155,0,0,0,.737-3.083A8.763,8.763,0,0,1,36.667,54.8h0c2.426-2.738,6.136-3.213,9.409-3.634.827-.109,1.607-.209,2.358-.34a21.947,21.947,0,0,0,3.321-.978A12.574,12.574,0,0,1,56.408,48.8c5.15.323,11.425-1.842,13.446-6.647a18.387,18.387,0,0,0,1.05-5.94c.237-3.583.483-7.29,4.4-9.746,1.539-.967,3.081,0,4.713,1.029,1.96,1.236,3.984,2.512,6.4.926q.3-.224.61-.448a60.037,60.037,0,0,1,11.735-6.807c8.544-3.5,15.451,4.558,20.026,9.887.243.285.48.562.709.826,1.033,1.2,1.228,2.917,1.429,4.74.3,2.694.613,5.484,3.871,6.429a4.563,4.563,0,0,0,1.319.114l1.6-.024c3.256-.049,6.622-.1,9.917-.079s6.977.28,8.937,3.069c1.547,2.2,1.11,4.044.689,5.826a13.467,13.467,0,0,0-.381,2.059c-.472,5.935,7.023,12.226,9.329,14.01.72.557,1.482,1.086,2.222,1.6A24.707,24.707,0,0,1,163,73.379c3.16,3.566,1.372,6.617-.729,9.436a23.319,23.319,0,0,0-4.665,10.642,58.74,58.74,0,0,0-.37,8.893c0,.579.008,1.154.011,1.727,0,.519.006,1.062.017,1.622.062,3.708.144,8.322-2.824,10.984a12.96,12.96,0,0,1-4.456,2.355,12.84,12.84,0,0,0-4.874,2.694c-1.612,1.565-1.087,3.659-.579,5.682a9.725,9.725,0,0,1,.449,2.906c-.152,2.124-1.83,3.235-3.453,4.311l-.313.206a17.727,17.727,0,0,0-5.622,5.294,25.233,25.233,0,0,0-1.562,3.167c-1.008,2.311-1.96,4.49-4.32,6-2.217,1.418-3.476.516-4.939-.524l-.09-.065c-1.581-1.125-3.693-1.518-5.93-1.937a18.688,18.688,0,0,1-5.6-1.649c-.565-.312-1.132-.687-1.731-1.084-2.205-1.459-4.707-3.113-7.96-2.062-1.957.636-2.219,2.589-2.5,4.658-.376,2.79-.765,5.671-5.238,5.761a29.849,29.849,0,0,0-7.638,1.475A32.214,32.214,0,0,1,81,155.332C80.753,155.348,80.508,155.353,80.27,155.353Zm-26.6-23.506a8.263,8.263,0,0,1,3.606.826c2.971,1.4,4.5,4.55,5.972,7.6.15.312.3.622.452.932l.1.261c.1.247.2.5.291.747.8,2.167,2.363,3.02,4.173,4.012a24.2,24.2,0,0,1,2.2,1.307,9.636,9.636,0,0,1,2.767,3.3,9.606,9.606,0,0,0,2.344,2.942,7.853,7.853,0,0,0,5.41,1.374,31.977,31.977,0,0,0,7.039-1.45,29.988,29.988,0,0,1,7.689-1.483c4.309-.084,4.687-2.887,5.052-5.6.288-2.127.559-4.137,2.626-4.8,3.346-1.086,5.887.6,8.132,2.083.6.394,1.158.766,1.714,1.076a18.628,18.628,0,0,0,5.543,1.627c2.157.4,4.391.82,6.006,1.969l.09.065c1.463,1.043,2.618,1.863,4.721.519,2.313-1.48,3.253-3.637,4.25-5.921a25.565,25.565,0,0,1,1.573-3.189,17.95,17.95,0,0,1,5.678-5.354l.313-.206c1.587-1.048,3.225-2.135,3.371-4.172a9.707,9.707,0,0,0-.443-2.849c-.5-1.977-1.059-4.216.627-5.853a12.935,12.935,0,0,1,4.941-2.735,12.69,12.69,0,0,0,4.4-2.32c2.9-2.6,2.827-6.986,2.759-10.848-.008-.56-.017-1.1-.017-1.624,0-.573-.006-1.149-.011-1.725a59.13,59.13,0,0,1,.376-8.92,23.488,23.488,0,0,1,4.7-10.724c2.143-2.876,3.812-5.745.74-9.213a24.708,24.708,0,0,0-4.538-3.721c-.74-.511-1.505-1.043-2.231-1.6-2.324-1.8-9.874-8.143-9.4-14.168a13.989,13.989,0,0,1,.384-2.086c.432-1.823.841-3.547-.658-5.682-1.912-2.719-5.534-2.969-8.782-2.988-3.29-.024-6.658.027-9.914.076l-1.6.024a4.732,4.732,0,0,1-1.381-.12c-3.38-.983-3.7-3.833-4-6.587-.2-1.793-.39-3.488-1.386-4.642-.229-.263-.466-.541-.712-.826C114.1,25.886,107.248,17.9,98.836,21.339a59.945,59.945,0,0,0-11.7,6.785l-.613.451c-2.524,1.657-4.7.288-6.613-.921-1.578-1-3.069-1.934-4.507-1.032-3.837,2.407-4.069,5.905-4.315,9.607a18.484,18.484,0,0,1-1.062,5.995c-2.058,4.886-8.423,7.1-13.638,6.761a12.637,12.637,0,0,0-4.574,1.035,22.159,22.159,0,0,1-3.352.986c-.754.133-1.536.234-2.366.34-3.239.418-6.91.891-9.29,3.572a8.648,8.648,0,0,0-2.016,4.99,14.126,14.126,0,0,1-.745,3.121,10.731,10.731,0,0,1-2.4,3.259c-.39.407-.754.793-1.09,1.2-1.528,1.825-2.829,3.463-3.979,5.009-2.954,3.963-5.89,8.7-5.294,13.777.2,1.747,2.8,2.29,4.882,2.724a7.892,7.892,0,0,1,2.392.712,19.8,19.8,0,0,0,2.558,1.366c2.414,1.152,5.419,2.583,6.554,5.489.861,3.235-.858,5.229-2.378,6.986l-.254.3a14.231,14.231,0,0,1-1.567,1.472c-1.358,1.165-2.9,2.483-3.095,4.468-.175,1.8.658,4.612,1.327,6.872.155.532.3,1.032.426,1.478s.251.934.384,1.44c1.482,5.642,3.722,14.17,11.122,14.312h.169a16.392,16.392,0,0,0,5.009-1.032A15.9,15.9,0,0,1,53.674,131.847Z" transform="translate(-21.021 -20.318)" fill="url(#linear-gradient-18)"/>
    </g>
    <g id="Group_20" data-name="Group 20" transform="translate(37.021 16.165)">
      <path id="Path_28" data-name="Path 28" d="M78.2,153.513a6.992,6.992,0,0,1-4.829-1.606,9.417,9.417,0,0,1-2.188-3.35,8.82,8.82,0,0,0-2.53-3.632,22.407,22.407,0,0,0-2.211-1.43c-1.83-1.08-3.411-2.016-4.063-4.492-.085-.326-.175-.648-.265-.966l-.037-.136c-.11-.285-.22-.581-.333-.879-1.273-3.369-2.592-6.853-5.56-8.255-3.242-1.538-5.82-.445-8.547.716a15.749,15.749,0,0,1-5.345,1.549c-.161.008-.319.011-.474.011-7.474,0-9.174-9.24-10.2-14.807-.073-.4-.144-.773-.212-1.126-.1-.556-.26-1.21-.421-1.9-.511-2.192-1.149-4.918-.788-6.59.446-2.062,2.454-3.253,4.224-4.3a16.438,16.438,0,0,0,1.872-1.226l.028-.022c1.9-1.541,4.272-3.462,3.394-6.788-1.234-3.017-4.84-4.124-7.734-5.013-.822-.252-1.6-.491-2.236-.749a10.122,10.122,0,0,0-2.3-.266c-2.459-.138-5.831-.328-6.113-2.176-.768-5.04,2.259-9.517,5.647-13.6,1.231-1.487,2.609-3.06,4.213-4.807.342-.374.717-.732,1.113-1.11a9.089,9.089,0,0,0,2.465-3.141,11.757,11.757,0,0,0,.607-3.141,7.582,7.582,0,0,1,1.881-5.027h0c2.55-2.789,6.517-3.006,10.018-3.2.873-.049,1.7-.092,2.482-.174a20.053,20.053,0,0,0,3.563-.841,11.584,11.584,0,0,1,4.854-.789c5.43.844,12.1-1.34,13.859-6.467a18.123,18.123,0,0,0,.517-6.451c-.141-3.858-.288-7.848,3.71-10.482,1.542-1.015,3.078.138,4.7,1.359,2,1.5,4.075,3.052,6.6,1.291.2-.163.4-.328.61-.491A59.005,59.005,0,0,1,100,21.467c9.061-4.061,16.149,5.773,20.381,11.646l.3.423c.943,1.313.946,3.209.952,5.22.006,3,.014,6.1,3.414,7.067a4.166,4.166,0,0,0,1.367.076q2.469-.134,4.927-.274,3.5-.2,7-.385c3.707-.193,7.384.022,9.233,2.933,1.446,2.268.641,4.126-.135,5.922a12.837,12.837,0,0,0-.779,2.124c-1.161,4.948,4.015,10.55,8.8,13.846.771.529,1.6,1.02,2.392,1.5a21.43,21.43,0,0,1,4.69,3.4c3.428,3.581,1.039,6.587-1.465,9.121a19.385,19.385,0,0,0-5.684,10.179,48.573,48.573,0,0,0-.432,9.408l.02,1.042c.006.545.028,1.115.051,1.717.138,3.657.311,8.2-2.875,10.621A11.792,11.792,0,0,1,147.4,118.9a11.043,11.043,0,0,0-5.227,2.208c-1.691,1.487-.892,3.586-.121,5.618a9.075,9.075,0,0,1,.774,2.854c.017,2.211-1.821,3.329-3.445,4.313-.136.084-.274.165-.407.247a15.833,15.833,0,0,0-5.791,5.333,23.049,23.049,0,0,0-1.488,3.353c-.912,2.4-1.776,4.663-4.21,6.188-2.327,1.451-3.578.312-5.023-1.012l-.119-.108c-1.578-1.441-3.758-2.035-6.068-2.664a17.639,17.639,0,0,1-5.673-2.263c-.531-.38-1.065-.825-1.629-1.3-2.211-1.839-4.716-3.925-8.107-2.832-1.954.629-1.991,2.781-2.03,5.054-.054,2.971-.113,6.34-4.862,6.372a27.11,27.11,0,0,0-7.892,1.622,29.99,29.99,0,0,1-7.093,1.6C78.72,153.507,78.457,153.513,78.2,153.513Zm-25.238-25.7a7.568,7.568,0,0,1,3.309.781c3.038,1.435,4.368,4.956,5.656,8.361.113.3.223.591.336.884l.04.144c.09.32.181.643.265.968.632,2.4,2.183,3.318,3.979,4.379a22.423,22.423,0,0,1,2.228,1.441,8.955,8.955,0,0,1,2.586,3.706,9.2,9.2,0,0,0,2.143,3.288,7.2,7.2,0,0,0,5.469,1.533,29.724,29.724,0,0,0,7.042-1.6,27.15,27.15,0,0,1,7.951-1.63c4.56-.033,4.617-3.163,4.67-6.188.04-2.344.079-4.558,2.163-5.228,3.5-1.131,6.048.993,8.3,2.867.562.469,1.093.912,1.621,1.289a17.468,17.468,0,0,0,5.608,2.23c2.231.608,4.535,1.237,6.147,2.707l.121.111c1.443,1.318,2.584,2.36,4.783.99,2.378-1.492,3.23-3.727,4.131-6.093a22.813,22.813,0,0,1,1.5-3.383,15.945,15.945,0,0,1,5.856-5.4l.407-.25c1.658-1.006,3.371-2.045,3.352-4.153a8.943,8.943,0,0,0-.76-2.789c-.757-1.991-1.615-4.251.172-5.822a11.227,11.227,0,0,1,5.314-2.254,11.433,11.433,0,0,0,4.679-1.807c3.109-2.355,2.937-6.85,2.8-10.463-.023-.6-.045-1.175-.054-1.723l-.017-1.042a48.346,48.346,0,0,1,.435-9.446,19.564,19.564,0,0,1,5.732-10.274c2.558-2.585,4.778-5.4,1.465-8.863a21.348,21.348,0,0,0-4.648-3.372c-.8-.477-1.626-.971-2.4-1.506-4.834-3.326-10.058-9-8.875-14.039a12.952,12.952,0,0,1,.788-2.157c.794-1.834,1.542-3.565.15-5.751-1.8-2.827-5.419-3.036-9.056-2.843q-3.494.187-7,.385-2.461.138-4.927.274A4.364,4.364,0,0,1,125,46.005c-3.544-1.006-3.549-4.181-3.558-7.249,0-1.978-.006-3.847-.915-5.114l-.3-.42c-4.2-5.827-11.227-15.583-20.139-11.584A59.6,59.6,0,0,0,88.3,29.147c-.206.163-.409.326-.616.491-2.649,1.853-4.874.182-6.836-1.291C79.211,27.121,77.8,26.06,76.373,27c-3.908,2.577-3.77,6.34-3.623,10.322a18.328,18.328,0,0,1-.528,6.516c-1.861,5.418-8.638,7.444-14.076,6.592a11.542,11.542,0,0,0-4.764.784,20.349,20.349,0,0,1-3.6.849c-.793.081-1.618.128-2.493.174-3.462.19-7.387.407-9.883,3.136h0a7.428,7.428,0,0,0-1.833,4.918,11.986,11.986,0,0,1-.618,3.19,9.229,9.229,0,0,1-2.51,3.209c-.392.377-.765.73-1.1,1.1-1.6,1.744-2.979,3.315-4.207,4.8-3.36,4.053-6.362,8.489-5.605,13.458.257,1.7,3.535,1.88,5.93,2.016a9.779,9.779,0,0,1,2.369.279c.633.255,1.4.494,2.219.743,2.937.9,6.588,2.024,7.861,5.133.912,3.453-1.508,5.415-3.453,6.991l-.028.024a16.654,16.654,0,0,1-1.9,1.24c-1.737,1.031-3.7,2.2-4.134,4.18-.353,1.63.28,4.338.788,6.511.161.694.316,1.351.424,1.91.068.355.136.732.209,1.129,1.014,5.507,2.7,14.652,10.01,14.652.15,0,.3,0,.457-.011a15.609,15.609,0,0,0,5.277-1.533A13.885,13.885,0,0,1,52.965,127.816Z" transform="translate(-21.213 -20.512)" fill="url(#linear-gradient-19)"/>
    </g>
    <g id="Group_21" data-name="Group 21" transform="translate(37.563 16.755)">
      <path id="Path_29" data-name="Path 29" d="M76.139,151.663a6.539,6.539,0,0,1-4.854-1.783,9.232,9.232,0,0,1-1.991-3.7,8.426,8.426,0,0,0-2.341-4.015,20.529,20.529,0,0,0-2.239-1.569c-1.818-1.154-3.391-2.151-3.868-4.871l-.04-.219c-.056-.328-.116-.656-.172-.981-.082-.271-.164-.553-.246-.837-1.079-3.715-2.191-7.556-5.21-8.992-3.36-1.607-5.989-.219-8.773,1.244a15.822,15.822,0,0,1-5.455,2.056,6.778,6.778,0,0,1-5.077-1.268c-3.77-2.9-4.5-9.887-4.933-14.059l-.065-.634c-.068-.629-.2-1.406-.347-2.227-.4-2.249-.841-4.793-.313-6.343.706-2.062,3.16-3.094,5.325-4.007a20.135,20.135,0,0,0,2.166-1.005c2.615-1.515,5.1-3.265,4.241-6.516-1.446-3.381-6.424-4.107-9.716-4.59-.418-.062-.813-.119-1.175-.179a13.693,13.693,0,0,0-2.152.06c-2.784.179-6.986.452-7.333-1.374-.946-4.958,2.307-9.323,5.961-13.3,1.364-1.477,2.858-3.024,4.442-4.6.347-.347.729-.675,1.132-1.021a8.03,8.03,0,0,0,2.567-3.072,10.072,10.072,0,0,0,.469-3.192,6.631,6.631,0,0,1,1.711-4.985h0c2.668-2.848,6.9-2.8,10.637-2.761.915.011,1.779.019,2.6-.011a18.73,18.73,0,0,0,3.8-.7,11.125,11.125,0,0,1,5.063-.542c5.659,1.357,12.724-.658,14.268-6.286.584-2.121.277-4.576-.02-6.95-.52-4.135-1.056-8.41,3.027-11.225,1.539-1.062,3.075.268,4.7,1.677,2.044,1.772,4.159,3.606,6.791,1.664.2-.176.407-.355.613-.534a58.849,58.849,0,0,1,11.916-8.258c4.14-2.01,8.355-1.111,12.532,2.671,3.332,3.021,5.93,7.131,8.1,10.748.858,1.433.675,3.509.48,5.706-.288,3.3-.59,6.714,2.954,7.7a3.906,3.906,0,0,0,1.406.038c3.959-.363,8.11-.775,12.337-1.217,3.7-.377,7.723-.341,9.53,2.8,1.35,2.341.181,4.216-.954,6.028a13.619,13.619,0,0,0-1.183,2.178c-2.143,5.549,4.473,11.377,8.271,13.68.81.493,1.689.937,2.536,1.368a19.246,19.246,0,0,1,4.834,3.086,4.672,4.672,0,0,1,1.717,3.555c-.11,2-1.951,3.706-3.922,5.251-3.693,2.894-5.885,6.072-6.7,9.716a39.815,39.815,0,0,0-.483,9.716l.017.566c.017.558.051,1.149.088,1.775.217,3.62.486,8.123-2.931,10.293a11.172,11.172,0,0,1-5.077,1.347c-1.923.2-3.911.4-5.551,1.707-1.776,1.4-.7,3.511.339,5.549a8.744,8.744,0,0,1,1.09,2.807c.2,2.3-1.737,3.381-3.451,4.335-.164.092-.325.182-.483.274-2.287,1.3-4.588,2.85-5.958,5.365a21.327,21.327,0,0,0-1.406,3.538c-.785,2.379-1.6,4.842-4.108,6.381-2.442,1.493-3.679.108-5.111-1.493l-.147-.163c-1.573-1.756-3.922-2.585-6.2-3.387a17.167,17.167,0,0,1-5.752-2.875c-.508-.447-1.017-.956-1.553-1.5-2.205-2.224-4.7-4.744-8.234-3.612-1.948.626-1.765,2.964-1.57,5.44.175,2.216.356,4.511-.946,5.852a4.64,4.64,0,0,1-3.532,1.138h-.065a25.1,25.1,0,0,0-8.056,1.769,28.493,28.493,0,0,1-7.127,1.75C76.687,151.653,76.41,151.663,76.139,151.663ZM52.166,123.776a7.084,7.084,0,0,1,3.1.742c3.1,1.474,4.224,5.359,5.314,9.114q.123.427.246.845c.062.336.119.664.178.992l.037.219c.463,2.639,2,3.612,3.781,4.741a20.822,20.822,0,0,1,2.259,1.585,8.557,8.557,0,0,1,2.4,4.1,9.106,9.106,0,0,0,1.948,3.631,6.727,6.727,0,0,0,5.526,1.7,28.327,28.327,0,0,0,7.076-1.739,25.276,25.276,0,0,1,8.124-1.78h.113a4.443,4.443,0,0,0,3.335-1.076c1.242-1.282,1.067-3.533.9-5.709-.2-2.552-.392-4.964,1.706-5.636,3.648-1.17,6.2,1.4,8.446,3.66.534.539,1.039,1.046,1.542,1.487a17.03,17.03,0,0,0,5.684,2.837c2.3.81,4.673,1.65,6.28,3.444l.147.163c1.429,1.6,2.558,2.853,4.848,1.455,2.451-1.5,3.216-3.82,4.027-6.278a21.334,21.334,0,0,1,1.42-3.568c1.392-2.558,3.722-4.126,6.031-5.443.161-.089.322-.182.486-.274,1.745-.97,3.547-1.972,3.352-4.148a8.7,8.7,0,0,0-1.07-2.739c-1.025-2.008-2.186-4.284-.288-5.785,1.689-1.347,3.707-1.552,5.661-1.75a11,11,0,0,0,4.987-1.317c3.321-2.108,3.055-6.551,2.841-10.12-.037-.626-.073-1.219-.088-1.78l-.017-.564a39.961,39.961,0,0,1,.486-9.765c.825-3.687,3.041-6.9,6.768-9.824,1.937-1.517,3.747-3.186,3.852-5.11a4.442,4.442,0,0,0-1.66-3.408,19,19,0,0,0-4.783-3.053c-.853-.434-1.734-.878-2.553-1.376-3.843-2.333-10.538-8.245-8.35-13.91a13.786,13.786,0,0,1,1.2-2.211c1.1-1.767,2.245-3.59.952-5.836-1.751-3.04-5.7-3.07-9.335-2.7-4.227.442-8.378.851-12.337,1.214a4.155,4.155,0,0,1-1.482-.043c-3.7-1.03-3.394-4.522-3.1-7.9.192-2.168.373-4.213-.455-5.592-2.166-3.606-4.752-7.7-8.064-10.7-4.108-3.72-8.248-4.609-12.3-2.639a58.529,58.529,0,0,0-11.874,8.231c-.2.176-.409.355-.616.536-2.77,2.046-5.046.07-7.056-1.669-1.629-1.414-3.038-2.636-4.447-1.664-3.984,2.747-3.456,6.966-2.942,11.046.3,2.39.61,4.861.014,7.023-1.578,5.738-8.762,7.8-14.511,6.424a10.923,10.923,0,0,0-4.964.539,19.034,19.034,0,0,1-3.837.7c-.83.033-1.694.022-2.612.014-3.693-.041-7.878-.087-10.484,2.7h0a6.478,6.478,0,0,0-1.66,4.861,10.159,10.159,0,0,1-.48,3.249,8.147,8.147,0,0,1-2.62,3.154c-.4.344-.779.672-1.124,1.013-1.581,1.571-3.072,3.116-4.433,4.59-3.623,3.942-6.845,8.264-5.916,13.141.316,1.658,4.411,1.393,7.121,1.214a14.129,14.129,0,0,1,2.2-.054c.361.06.754.116,1.172.176,3.338.49,8.381,1.227,9.877,4.722.892,3.392-1.652,5.191-4.329,6.741a20.863,20.863,0,0,1-2.191,1.019c-2.126.894-4.535,1.907-5.213,3.891-.514,1.5-.051,4.132.319,6.248.144.824.282,1.6.35,2.241l.068.634c.429,4.143,1.152,11.076,4.857,13.926a6.571,6.571,0,0,0,4.927,1.227,15.583,15.583,0,0,0,5.382-2.035C48.235,124.751,50.087,123.776,52.166,123.776Z" transform="translate(-21.405 -20.711)" fill="url(#linear-gradient-20)"/>
    </g>
    <g id="Group_22" data-name="Group 22" transform="translate(38.101 17.32)">
      <path id="Path_30" data-name="Path 30" d="M74.086,149.827a6.208,6.208,0,0,1-4.885-1.954,9.355,9.355,0,0,1-1.8-4.061,8.356,8.356,0,0,0-2.149-4.4,20.243,20.243,0,0,0-2.248-1.688c-1.818-1.231-3.391-2.295-3.693-5.266-.025-.241-.048-.484-.071-.722-.017-.195-.034-.387-.054-.576l-.169-.79c-.875-4.064-1.782-8.266-4.843-9.736-3.482-1.667-6.158,0-8.993,1.77a16.122,16.122,0,0,1-5.571,2.565,6.258,6.258,0,0,1-5.145-1.072c-3.888-3.039-4.049-11.07-4.125-14.928-.014-.679-.119-1.556-.232-2.481-.265-2.208-.565-4.711.121-6.164.971-2.062,3.888-2.928,6.458-3.693.9-.268,1.748-.522,2.423-.8,3.134-1.3,5.916-2.963,5.066-6.221-1.559-3.482-7.285-3.978-11.814-3.783-.322.014-.98.124-1.816.262-3.112.514-8.316,1.375-8.739-.449-1.144-4.93,2.533-9.341,6.28-13,1.434-1.4,3-2.879,4.668-4.389.353-.319.743-.622,1.155-.944a7.133,7.133,0,0,0,2.663-3,8.8,8.8,0,0,0,.328-3.231c-.048-1.667-.09-3.242,1.55-4.952,2.787-2.906,7.291-2.595,11.264-2.319.954.068,1.855.13,2.705.149a17.546,17.546,0,0,0,4.021-.555c1.914-.406,3.724-.79,5.28-.3a14.161,14.161,0,0,0,10.654-.842A7.8,7.8,0,0,0,76.4,47c.486-2.257-.048-4.892-.568-7.438-.9-4.416-1.821-8.981,2.352-11.976,1.542-1.112,3.072.4,4.7,1.986,1.988,1.951,4.244,4.164,6.983,2.043.2-.189.407-.384.613-.574a60.265,60.265,0,0,1,12.009-8.983,9.027,9.027,0,0,1,7.054-.747c6.853,2.13,11.874,12.2,13.523,15.515.774,1.55.407,3.8.017,6.191-.587,3.6-1.194,7.322,2.485,8.323a3.8,3.8,0,0,0,1.451,0c4.14-.528,8.426-1.126,12.743-1.772,3.645-.547,8.056-.741,9.829,2.66,1.262,2.419-.277,4.316-1.768,6.148a14.666,14.666,0,0,0-1.6,2.222c-2.858,5.344,3.233,11.126,7.743,13.516.844.446,1.765.836,2.654,1.212a17.55,17.55,0,0,1,5.006,2.8,4.2,4.2,0,0,1,1.731,3.426c-.195,2.038-2.474,3.7-4.679,5.063-4.185,2.581-6.783,5.7-7.717,9.254-.825,3.141-.672,6.6-.522,9.939l.006.179c.025.555.076,1.155.127,1.789.294,3.591.661,8.058-2.99,10.006a11.121,11.121,0,0,1-5.407.858c-2.047-.019-4.162-.027-5.87,1.2-1.85,1.326-.5,3.434.8,5.471a8.877,8.877,0,0,1,1.4,2.771c.407,2.381-1.652,3.436-3.467,4.367q-.28.142-.551.284c-2.383,1.256-4.772,2.782-6.122,5.4a19.951,19.951,0,0,0-1.321,3.715c-.7,2.47-1.42,5.025-4.012,6.578-2.553,1.529-3.778-.089-5.2-1.967l-.164-.219c-1.576-2.07-3.99-3.106-6.322-4.11a17.069,17.069,0,0,1-5.839-3.485c-.483-.509-.969-1.082-1.482-1.691-2.2-2.608-4.69-5.563-8.352-4.4-1.946.622-1.542,3.147-1.115,5.818.392,2.468.8,5.017-.522,6.464a4.372,4.372,0,0,1-3.408,1.153l-.359,0a23.817,23.817,0,0,0-8.135,1.916,27.118,27.118,0,0,1-7.178,1.894C74.662,149.816,74.368,149.827,74.086,149.827ZM51.31,119.746a6.74,6.74,0,0,1,2.959.714c3.151,1.51,4.066,5.761,4.953,9.871l.172.8c.02.2.037.4.056.587q.03.361.068.722c.294,2.879,1.756,3.869,3.606,5.122a20.014,20.014,0,0,1,2.27,1.707,8.518,8.518,0,0,1,2.208,4.492,9.216,9.216,0,0,0,1.756,3.98c1.3,1.437,3.126,2.046,5.585,1.851a27.1,27.1,0,0,0,7.121-1.881,23.928,23.928,0,0,1,8.208-1.929l.359,0a4.179,4.179,0,0,0,3.253-1.085c1.257-1.38.858-3.883.472-6.3-.438-2.757-.856-5.36,1.257-6.034,3.8-1.215,6.336,1.8,8.578,4.459.511.606.994,1.177,1.474,1.68a16.924,16.924,0,0,0,5.772,3.439c2.358,1.015,4.8,2.062,6.4,4.175l.167.219c1.415,1.87,2.53,3.347,4.922,1.916,2.524-1.513,3.2-3.918,3.922-6.462a20.068,20.068,0,0,1,1.336-3.75c1.378-2.679,3.914-4.275,6.209-5.487.181-.095.364-.189.553-.287,1.754-.9,3.741-1.918,3.36-4.159a8.887,8.887,0,0,0-1.375-2.7c-1.29-2.013-2.753-4.3-.757-5.734,1.768-1.266,3.922-1.258,6-1.242a10.92,10.92,0,0,0,5.306-.831c3.532-1.889,3.171-6.286,2.883-9.817-.054-.636-.1-1.239-.127-1.8l-.008-.179c-.15-3.355-.3-6.824.531-9.993.949-3.61,3.575-6.765,7.808-9.376,2.036-1.256,4.4-2.949,4.583-4.914a4.015,4.015,0,0,0-1.669-3.261,17.32,17.32,0,0,0-4.944-2.757c-.9-.382-1.821-.771-2.674-1.223-4.577-2.424-10.75-8.31-7.827-13.781a15.06,15.06,0,0,1,1.618-2.251c1.451-1.783,2.951-3.629,1.748-5.937-1.717-3.285-6.04-3.09-9.612-2.554-4.32.649-8.609,1.245-12.749,1.775a3.968,3.968,0,0,1-1.536-.008c-3.857-1.05-3.233-4.86-2.632-8.548.384-2.354.745-4.578,0-6.075-1.641-3.29-6.63-13.307-13.4-15.41a8.819,8.819,0,0,0-6.893.731,60.284,60.284,0,0,0-11.961,8.951c-.206.192-.412.384-.618.582-2.894,2.24-5.218-.041-7.268-2.054-1.626-1.594-3.03-2.971-4.425-1.967-4.069,2.925-3.154,7.428-2.27,11.781.52,2.565,1.059,5.22.565,7.517a8,8,0,0,1-4.125,5.4,14.417,14.417,0,0,1-10.823.858c-1.5-.479-3.284-.1-5.17.3a19.338,19.338,0,0,1-3.9.557h-.169c-.858-.019-1.762-.081-2.716-.149-3.928-.271-8.378-.582-11.1,2.257-1.581,1.651-1.539,3.185-1.494,4.811a8.9,8.9,0,0,1-.336,3.3,7.286,7.286,0,0,1-2.731,3.087c-.407.319-.793.62-1.141.936-1.663,1.507-3.23,2.982-4.665,4.383C24.527,76.4,20.89,80.757,22.011,85.6c.378,1.64,5.661.766,8.5.295.841-.138,1.508-.249,1.844-.262,4.591-.2,10.408.317,12.018,3.918.9,3.423-2.115,5.19-5.179,6.464-.686.287-1.539.541-2.442.812-2.53.752-5.4,1.607-6.331,3.588-.664,1.4-.367,3.875-.1,6.058.113.931.217,1.81.232,2.5.076,3.829.237,11.795,4.049,14.777a6.044,6.044,0,0,0,4.978,1.031,15.986,15.986,0,0,0,5.495-2.535C47.111,120.966,49.068,119.746,51.31,119.746Z" transform="translate(-21.596 -20.903)" fill="url(#linear-gradient-21)"/>
    </g>
  </g>
</svg>
