<svg xmlns="http://www.w3.org/2000/svg" width="13.795" height="23.004" viewBox="0 0 13.795 23.004">
  <path id="Path_232" data-name="Path 232" d="M86.2.683A2.208,2.208,0,0,0,84.586,0h-9.2a2.209,2.209,0,0,0-1.617.683A2.211,2.211,0,0,0,73.09,2.3V20.7a2.332,2.332,0,0,0,2.3,2.3h9.2a2.332,2.332,0,0,0,2.3-2.3V2.3A2.21,2.21,0,0,0,86.2.683ZM78.551,2.3h2.874a.254.254,0,0,1,.287.288.254.254,0,0,1-.287.288H78.551a.254.254,0,0,1-.287-.288A.254.254,0,0,1,78.551,2.3ZM81,21.719a1.433,1.433,0,1,1,.422-1.015A1.385,1.385,0,0,1,81,21.719Zm4.158-3.891a.583.583,0,0,1-.575.575h-9.2a.582.582,0,0,1-.575-.575V5.176a.583.583,0,0,1,.575-.575h9.2a.583.583,0,0,1,.575.575V17.828h0Z" transform="translate(-73.09 0)" fill="#87aedb"/>
</svg>
