<svg xmlns="http://www.w3.org/2000/svg" width="21.612" height="17.56" xmlns:v="https://vecta.io/nano"><path d="M21.612 2.079c-.813.355-1.673.59-2.553.7.927-.55 1.621-1.422 1.949-2.449-.868.514-1.818.876-2.808 1.07a4.43 4.43 0 0 0-7.664 3.03 4.56 4.56 0 0 0 .1 1.01A12.54 12.54 0 0 1 1.5.808C.316 2.832.913 5.427 2.862 6.73c-.701-.019-1.387-.206-2-.546v.049a4.45 4.45 0 0 0 3.55 4.353 4.42 4.42 0 0 1-1.162.146 3.92 3.92 0 0 1-.839-.076c.587 1.802 2.246 3.038 4.14 3.086a8.9 8.9 0 0 1-5.493 1.89A8.3 8.3 0 0 1 0 15.571c2.027 1.306 4.389 1.997 6.8 1.989 3.351.023 6.571-1.299 8.94-3.668s3.69-5.589 3.668-8.94l-.016-.573a8.84 8.84 0 0 0 2.22-2.3z" fill="#30afdb"/></svg>