<?xml version="1.0" encoding="utf-8"?>
<!-- Generator: Adobe Illustrator 17.0.0, SVG Export Plug-In . SVG Version: 6.00 Build 0)  -->
<!DOCTYPE svg PUBLIC "-//W3C//DTD SVG 1.0//EN" "http://www.w3.org/TR/2001/REC-SVG-20010904/DTD/svg10.dtd">
<svg version="1.0" id="Layer_1" xmlns="http://www.w3.org/2000/svg" xmlns:xlink="http://www.w3.org/1999/xlink" x="0px" y="0px"
	 width="200px" height="200px" viewBox="0 0 200 200" enable-background="new 0 0 200 200" xml:space="preserve">
<g>
	<path fill="#FFFFFF" d="M143.898,128.982c1.346-0.28,2.003-1.436,2.787-2.344c9.156-10.609,14.023-23.012,14.164-36.952
		c0.232-22.801-9.76-40.139-29.135-52.115c-10.297-6.365-21.692-8.455-33.568-8.688c-2.26-0.044-4.522-0.006-6.948-0.006
		c0.594-0.63,1.046-1.235,1.716-1.571c1.419-0.711,2.568-1.794,3.827-2.721c0.55-0.405,1.077-0.644,1.75-0.672
		c14.931-0.627,28.972,2.364,41.407,10.927c14.042,9.669,22.448,23.076,25.313,39.916c1.5,8.818,0.411,17.458-1.806,26.017
		c-1.36,5.253-3.254,10.306-5.75,15.129c-0.247,0.478-0.523,0.942-0.846,1.523c0.901-0.272,1.227-1.019,1.653-1.584
		c9.239-12.24,12.528-26.11,10.949-41.192c-0.974-9.305-4.068-17.967-9.401-25.668c-9.656-13.942-22.853-22.627-39.551-25.859
		c-6.096-1.18-12.267-1.414-18.46-1.279c-0.394,0.009-0.788,0.001-1.18,0.001c-0.11-0.41,0.19-0.522,0.398-0.68
		c1.381-1.051,2.814-2.04,4.132-3.164c0.957-0.816,2.006-1.112,3.211-1.143c14.341-0.374,27.738,2.791,39.778,10.807
		c7.819,5.206,13.999,11.978,18.665,20.147c5.053,8.847,7.638,18.354,7.767,28.527c0.08,6.287-1.257,12.358-3.095,18.316
		c-2.087,6.768-5.006,13.165-9.068,19.012c0.436,0.228,0.618-0.097,0.823-0.327c5.879-6.61,10.125-14.138,12.71-22.6
		c1.856-6.077,2.684-12.298,2.521-18.644c-0.287-11.182-3.574-21.394-9.83-30.688c-7.533-11.19-17.727-19.008-30.249-23.746
		c-7.054-2.669-14.523-3.375-22.031-3.511c-1.92-0.035-3.841-0.005-6.092-0.005c2.226-1.696,4.19-3.21,6.183-4.684
		c0.227-0.168,0.619-0.145,0.936-0.153c8.404-0.222,16.565,1.069,24.511,3.826c11.348,3.937,20.888,10.522,28.371,19.872
		c9.649,12.056,14.465,25.82,12.831,41.338c-1.111,10.549-4.389,20.494-10.405,29.388c-0.135,0.2-0.262,0.406-0.376,0.619
		c-0.032,0.06-0.005,0.152-0.005,0.258c0.395,0.248,0.845,0.108,1.267,0.108c7.03,0.008,14.06,0.021,21.09-0.019
		c1.043-0.006,1.512,0.192,1.413,1.371c-0.117,1.404-0.078,2.829,0.001,4.239c0.054,0.956-0.254,1.229-1.213,1.222
		c-5.575-0.043-11.151-0.021-16.727-0.021c-3.555,0-7.111,0.02-10.666-0.019c-0.789-0.009-1.338,0.185-1.88,0.8
		c-0.677,0.768-1.531,1.38-2.309,2.06c0.089,0.152,0.179,0.304,0.268,0.456c0.584,0,1.168,0,1.752,0
		c9.818,0,19.636,0.019,29.454-0.028c1.104-0.005,1.378,0.324,1.317,1.362c-0.086,1.449-0.083,2.911,0.001,4.361
		c0.054,0.945-0.288,1.128-1.164,1.125c-12.848-0.032-25.697,0.051-38.544-0.108c-2.313-0.029-3.159,1.272-4.182,2.738
		c-0.275,0.394-0.107,0.591,0.331,0.611c0.323,0.015,0.646,0.017,0.969,0.017c13.737-0.001,27.474,0.011,41.211-0.028
		c1.099-0.003,1.464,0.265,1.387,1.389c-0.105,1.528-0.053,3.069-0.023,4.604c0.012,0.619-0.177,0.884-0.823,0.836
		c-0.603-0.045-1.211-0.009-1.817-0.008c-16.808,0.001-33.616,0.002-50.423-0.002c-0.358,0-0.717-0.059-1.075-0.091
		c-0.552-0.344,0.023-0.608,0.144-0.662C143.138,130.534,143.482,129.733,143.898,128.982z"/>
	<path fill="#FFFFFF" d="M143.898,128.982c-0.417,0.751-0.761,1.552-1.634,1.939c-0.12,0.053-0.696,0.318-0.144,0.662
		c-1.407,0.636-2.063,2.112-3.287,2.959c-0.161,0.111-0.058,0.386,0.217,0.401c0.322,0.018,0.645,0.012,0.968,0.012
		c18.288-0.002,36.576,0.005,54.864-0.032c1.104-0.002,1.468,0.271,1.395,1.392c-0.1,1.528-0.052,3.067-0.012,4.6
		c0.016,0.62-0.15,0.868-0.803,0.829c-0.845-0.05-1.695-0.009-2.543-0.009c-21.114,0-42.228,0-63.342,0.004
		c-0.557,0-1.13-0.09-1.663,0.169c-1.41-0.014-2.821-0.028-4.232-0.043c-0.23-0.049-0.459-0.141-0.689-0.141
		c-11.207,0-22.414,0.008-33.621,0.013c-0.281,0-0.567-0.056-0.805,0.153c-2.654,0.002-5.308,0.003-7.963,0.005
		c-0.852-0.325-1.744-0.191-2.605-0.139c-0.886,0.053-1.032-0.283-1.046-1.083c-0.031-1.784,0.471-3.583,0.017-5.352
		c0.433-0.335,0.002-0.798,0-1.297c-0.012-3.628,0.01-7.255,0-10.883c-0.001-0.386,0.367-0.817,0-1.135
		c0.007-2.358-0.019-4.716,0-7.074c0.004-0.526,0.211-1.034,0-1.52c-0.162-2.385,0.238-4.692,0-7.095
		c-0.13-1.309-0.092-2.646,0-3.961c0.051-0.722-0.656-1.256,0-2.028c0.013-2.569,0.009-5.138,0-7.707
		c-0.001-0.386,0.086-0.772,0-1.158c-0.011-0.43,0.028-0.591,0-1.059c-0.239-3.936,0.931-7.908,0-11.818
		c0.407-0.628-0.001-1.332,0-1.995c0.013-14.742,0.025-29.484-0.021-44.225c-0.004-1.206,0.264-1.53,1.507-1.515
		c6.136,0.071,12.272-0.094,18.398,0.49c14.048,1.339,26.96,5.633,37.654,15.13c12.329,10.95,20.075,24.499,22.044,41.064
		c1.069,8.992-0.71,17.591-3.854,25.964C150.588,119.123,147.644,124.283,143.898,128.982z M107.336,38.628
		c-0.861-0.742-2.047-0.46-2.988-0.949c-0.043-0.254-0.144-0.462-0.441-0.467c-2.277-0.04-4.496-0.854-6.802-0.51
		c-1.099,0.076-2.195-0.436-3.295-0.013c-0.779-0.457-1.622-0.527-2.509-0.501c-1.441,0.043-2.883,0.012-4.325,0.012
		c-0.483-0.008-0.967-0.011-1.45-0.024c-1.754-0.049-1.754-0.051-1.754,1.702c0,23.226,0,46.452,0,69.678
		c0,8.725,0.001,17.45-0.01,26.175c-0.001,0.731-0.044,1.245,1.025,1.243c16.763-0.036,33.526-0.025,50.289-0.01
		c0.574,0.001,0.996-0.145,1.359-0.6c0.702-0.881,1.525-1.666,2.09-2.655c0.745-1.056,1.56-2.071,2.215-3.18
		c0.687-1.164,1.826-2.092,1.951-3.565c0.485-0.116,0.657-0.525,0.863-0.907c0.375-0.693,0.76-1.381,1.14-2.072
		c0.104-0.051,0.286-0.085,0.302-0.156c0.419-1.883,1.28-3.597,2.115-5.306c0.276-0.565,0.441-1.074,0.401-1.676
		c0.546-0.948,0.689-2.042,1.104-3.037c0.158-0.902,0.073-1.959,0.526-2.674c0.881-1.392,0.811-2.839,0.794-4.33
		c0.45-0.33,0.411-0.844,0.499-1.313c1.301-6.918,0.635-13.74-0.965-20.524c-1.964-8.329-5.052-16.168-10.182-23.087
		c-5.618-7.579-13.004-13.042-21.242-17.442c-1.27-0.679-2.535-1.41-3.981-1.692c-0.419-0.42-1.019-0.242-1.539-0.478
		C110.878,39.52,109.201,38.743,107.336,38.628z"/>
	<path fill="#FFFFFF" d="M3.993,33.343c2.486,0,4.775,0.014,7.064-0.009c0.653-0.007,0.767,0.501,1.001,0.897
		c3.842,6.492,7.676,12.99,11.517,19.483c9.06,15.314,18.125,30.625,27.183,45.941c9.962,16.844,19.931,33.685,29.85,50.554
		c0.661,1.125,1.356,1.514,2.655,1.492c5.411-0.093,10.83,0.1,16.235-0.1c8.984-0.331,17.381-2.937,25.326-7.081
		c0.332-0.173,0.604-0.579,1.298-0.274c-1.056,0.778-1.985,1.529-2.978,2.183c-8.313,5.479-17.516,8.597-27.32,9.863
		c-3.299,0.426-6.696,0.094-10.048,0.1c-2.747,0.005-5.495-0.053-8.24,0.025c-1.035,0.029-1.568-0.342-2.076-1.212
		c-6.625-11.363-13.285-22.706-19.944-34.05c-9.13-15.555-18.268-31.105-27.401-46.658C20.227,61.064,12.343,47.63,4.459,34.196
		C4.337,33.989,4.228,33.776,3.993,33.343z"/>
	<path fill="#FFFFFF" d="M76.971,122.008c0.367,0.318-0.001,0.748,0,1.135c0.01,3.628-0.012,7.255,0,10.883
		c0.002,0.499,0.433,0.962,0,1.297c-1.938-2.826-3.736-5.863-5.474-8.81c-8.847-15.001-17.652-30.027-26.468-45.047
		c-8.141-13.87-16.279-27.742-24.418-41.613c-1.102-1.878-2.18-3.77-3.315-5.628c-0.468-0.767-0.293-0.924,0.546-0.902
		c1.776,0.046,3.555,0.061,5.329-0.01c0.875-0.035,1.37,0.239,1.823,1.009c5.678,9.664,11.394,19.305,17.098,28.953
		c9.931,16.799,19.86,33.599,29.79,50.399c1.497,2.533,3.581,5.065,5.087,7.592C77.131,121.534,76.634,121.875,76.971,122.008z"/>
	<path fill="#FFFFFF" d="M76.971,100.33c-0.656,0.772,0.051,1.306,0,2.028c-0.092,1.315-0.13,2.652,0,3.961
		c0.238,2.403-0.162,4.711,0,7.095c-2.187-3.29-4.288-6.769-6.287-10.17c-12.199-20.75-24.375-41.513-36.56-62.271
		c-1.446-2.464-2.904-4.921-4.497-7.62c2.567,0,4.917-0.009,7.267,0.008c0.487,0.003,0.616,0.47,0.815,0.806
		c4.85,8.187,9.698,16.375,14.542,24.565C58.8,69.804,65.34,80.881,71.894,91.949C73.556,94.755,75.288,97.537,76.971,100.33z"/>
	<path fill="#FFFFFF" d="M76.971,78.588c0.931,3.911-0.239,7.883,0,11.818c0.028,0.468-0.011,0.63,0,1.059
		c-2.083-3.067-4.082-6.335-5.964-9.522C64.515,70.944,58.064,59.92,51.598,48.905c-2.83-4.82-5.647-9.648-8.495-14.457
		c-0.463-0.782-0.609-1.176,0.58-1.128c1.814,0.073,3.633,0.052,5.448,0.013c0.683-0.015,1.089,0.185,1.45,0.798
		c6.353,10.804,12.734,21.591,19.102,32.386C72.054,70.536,74.611,74.564,76.971,78.588z"/>
	<path fill="#FFFFFF" d="M80.605,141.895c2.654-0.002,5.308-0.003,7.963-0.005c0.325,0.556,0.694,1.091,0.965,1.671
		c0.435,0.933,1.039,1.294,2.142,1.28c5.641-0.073,11.285,0.044,16.924-0.06c5.181-0.095,10.257-0.906,15.084-2.916
		c1.411,0.014,2.821,0.028,4.232,0.043c-3.233,2.379-6.953,3.676-10.753,4.755c-6.791,1.929-13.752,2.675-20.79,2.771
		c-3.386,0.046-6.773-0.02-10.159,0.023c-0.903,0.011-1.459-0.218-1.912-1.071C83.135,146.188,81.846,144.055,80.605,141.895z"/>
	<path fill="#FFFFFF" d="M86.975,36.201c1.442,0,2.885,0.031,4.325-0.012c0.887-0.026,1.73,0.044,2.509,0.501
		c0.018,0.524,0.052,1.047,0.052,1.571c0.002,28.401,0.01,56.803-0.027,85.204c-0.002,1.2,0.338,1.444,1.478,1.441
		c14.705-0.037,29.411-0.023,44.117-0.016c1.087,0.001,2.175,0.048,3.262,0.074c-0.125,1.472-1.264,2.4-1.952,3.565
		c-0.655,1.109-1.47,2.124-2.215,3.18c-0.363-0.011-0.726-0.033-1.089-0.033c-16.275,0-32.55-0.011-48.825,0.031
		c-1.195,0.003-1.549-0.246-1.547-1.51c0.037-30.894,0.026-61.788,0.018-92.682C87.082,37.076,87.18,36.625,86.975,36.201z"/>
	<path fill="#FFFFFF" d="M97.105,36.702c2.306-0.344,4.525,0.47,6.802,0.51c0.297,0.005,0.398,0.213,0.442,0.467
		c-0.766,0.381-0.385,1.086-0.386,1.618c-0.021,24.717-0.007,49.433-0.043,74.15c-0.002,1.175,0.376,1.377,1.432,1.375
		c12.641-0.031,25.282-0.02,37.923-0.016c1.412,0,2.825,0.026,4.237,0.04c0.041,0.602-0.125,1.111-0.401,1.676
		c-0.835,1.71-1.695,3.424-2.115,5.306c-0.016,0.071-0.198,0.105-0.302,0.156c-0.335-0.731-0.993-0.383-1.488-0.384
		c-14.904-0.022-29.809-0.029-44.713,0.001c-1.009,0.002-1.369-0.163-1.368-1.294c0.039-26.82,0.034-53.64,0.034-80.459
		C97.16,38.8,97.124,37.751,97.105,36.702z"/>
	<path fill="#FFFFFF" d="M114.067,40.745c0,20.746-0.002,41.492,0.005,62.238c0.001,2.064-0.197,1.738,1.725,1.739
		c10.938,0.007,21.876-0.002,32.814,0c0.442,0,0.884,0.053,1.325,0.081c0.016,1.491,0.087,2.939-0.794,4.33
		c-0.453,0.716-0.368,1.772-0.526,2.674c-0.489-0.543-1.138-0.29-1.705-0.291c-12.641-0.017-25.282-0.01-37.923-0.012
		c-2.048,0-1.699,0.141-1.7-1.639c-0.008-23.02-0.006-46.041-0.003-69.061c0-0.726,0.033-1.451,0.051-2.177
		c1.864,0.115,3.542,0.892,5.192,1.639C113.048,40.503,113.648,40.325,114.067,40.745z"/>
	<g>
		<path fill="#FFFFFF" d="M18.072,185.236c0,0.372-0.068,0.643-0.169,0.846c-0.305,0.372-0.812,0.541-1.557,0.541H9.567
			c-1.252,0-1.591-0.237-1.76-1.387v-16.481H3.78v15.973c0,3.858,2.2,5.99,6.159,5.99h6.035c3.959,0,6.159-2.132,6.159-5.99v-15.973
			h-4.061V185.236z"/>
		<rect x="11.111" y="162.224" fill="#FFFFFF" width="4.027" height="4.027"/>
		<rect x="56.923" y="162.074" fill="#FFFFFF" width="4.027" height="4.027"/>
		<rect x="73.984" y="186.473" fill="#FFFFFF" width="4.027" height="4.095"/>
		<polygon fill="#FFFFFF" points="91.493,179.909 78.214,179.909 78.011,179.909 78.011,168.606 73.984,168.606 73.984,179.909 
			61.153,179.909 60.95,179.909 60.95,168.606 56.923,168.606 56.923,179.909 29.494,179.909 29.223,179.909 29.223,162.074 
			25.196,162.074 25.196,183.935 29.222,183.935 29.494,183.935 60.949,183.935 61.153,183.935 78.01,183.935 78.214,183.935 
			95.52,183.935 95.52,162.074 91.493,162.074 		"/>
		<path fill="#FFFFFF" d="M132.649,179.909h-22.053c-1.658,0-2.504-0.711-2.504-2.2v-9.103h-4.027v8.968
			c0,3.79,2.47,6.362,6.159,6.362h26.452v-15.33h-4.027V179.909z"/>
		<rect x="114.888" y="168.83" fill="#FFFFFF" width="4.095" height="4.027"/>
		<rect x="121.614" y="168.83" fill="#FFFFFF" width="4.027" height="4.027"/>
		<path fill="#FFFFFF" d="M189.279,168.606H177.31v11.303h-6.213v-6.565h-4.319v6.565H151.88h-0.203v-11.303h-4.975
			c-3.756,0-6.362,2.504-6.362,6.125v3.046c0,3.689,2.606,6.159,6.362,6.159h0.914v1.151c0,0.338-0.101,0.643-0.237,0.846
			c-0.203,0.372-0.71,0.541-1.489,0.541h-5.55v4.095h5.178c3.96,0,6.159-2.132,6.159-5.99v-0.643h0.203h43.761v-9.205
			C195.641,171.11,193.069,168.606,189.279,168.606z M147.616,179.909h-1.049c-1.455,0-2.2-0.846-2.2-2.504v-2.301
			c0-1.658,0.745-2.47,2.2-2.47h1.049V179.909z M191.614,179.909h-10.277v-7.276h8.077c1.489,0,2.2,0.812,2.2,2.47V179.909z"/>
		<rect x="3.708" y="146.841" fill="#FFFFFF" width="1.363" height="9.008"/>
		<rect x="34.674" y="146.841" fill="#FFFFFF" width="1.363" height="9.008"/>
		<rect x="22.201" y="154.505" fill="#FFFFFF" width="0.935" height="1.434"/>
		<rect x="52.788" y="154.505" fill="#FFFFFF" width="0.935" height="1.434"/>
		<path fill="#FFFFFF" d="M9.833,156.052c1.917,0,3.473-1.53,3.523-3.434v-2.376c0-1.948-1.575-3.528-3.523-3.528
			s-3.523,1.579-3.523,3.528v2.376C6.36,154.522,7.917,156.052,9.833,156.052z M7.924,149.993c0-1.054,0.855-1.909,1.909-1.909
			s1.909,0.855,1.909,1.909v2.988h-0.005c-0.054,1.006-0.884,1.806-1.904,1.806s-1.85-0.8-1.904-1.806H7.924V149.993z"/>
		<path fill="#FFFFFF" d="M17.652,156.052c1.917,0,3.473-1.53,3.523-3.434v-2.376c0-1.948-1.575-3.528-3.523-3.528
			s-3.523,1.579-3.523,3.528v2.376C14.179,154.522,15.735,156.052,17.652,156.052z M15.743,149.993c0-1.054,0.855-1.909,1.909-1.909
			c1.054,0,1.909,0.855,1.909,1.909v2.988h-0.005c-0.054,1.006-0.884,1.806-1.904,1.806c-1.019,0-1.85-0.8-1.904-1.806h-0.005
			V149.993z"/>
		<path fill="#FFFFFF" d="M40.541,156.052c1.917,0,3.473-1.53,3.523-3.434v-2.376c0-1.948-1.575-3.528-3.523-3.528
			c-1.948,0-3.523,1.579-3.523,3.528v2.376C37.068,154.522,38.624,156.052,40.541,156.052z M38.632,149.993
			c0-1.054,0.855-1.909,1.909-1.909c1.054,0,1.909,0.855,1.909,1.909v2.988h-0.005c-0.054,1.006-0.884,1.806-1.904,1.806
			s-1.85-0.8-1.904-1.806h-0.005V149.993z"/>
		<path fill="#FFFFFF" d="M48.359,156.052c1.917,0,3.473-1.53,3.523-3.434v-2.376c0-1.948-1.575-3.528-3.523-3.528
			c-1.948,0-3.523,1.579-3.523,3.528v2.376C44.886,154.522,46.443,156.052,48.359,156.052z M46.45,149.993
			c0-1.054,0.855-1.909,1.909-1.909c1.054,0,1.909,0.855,1.909,1.909v2.988h-0.005c-0.054,1.006-0.884,1.806-1.904,1.806
			c-1.019,0-1.85-0.8-1.904-1.806H46.45V149.993z"/>
		<path fill="#FFFFFF" d="M27.193,155.957c1.321-0.032,2.383-1.106,2.383-2.429c0-0.898-0.49-1.68-1.216-2.101
			c0.726-0.421,1.216-1.203,1.216-2.101c0-1.304-1.068-2.288-2.363-2.347l-0.001-0.004H23.88v1.47h3.487
			c0.368,0.173,0.624,0.542,0.624,0.974c0,0.498-0.339,1.07-0.799,1.197v0.006h-2.569v1.47h2.601
			c0.443,0.148,0.767,0.782,0.767,1.268c0,0.498-0.339,0.992-0.799,1.119v0.008H23.88v1.47L27.193,155.957L27.193,155.957z"/>
		<path fill="#FFFFFF" d="M58.751,155.959c2.459,0,2.25-2.644,2.25-2.644c0-2.273-1.74-2.667-1.74-2.667H57.94h-1.821v-2.227h4.372
			v-1.461h-5.845v1.461h0.012v2.227h-0.012v1.392h3.891c0.276,0.065,0.888,0.312,0.888,1.229c0,0.881-0.54,1.196-0.816,1.299h-3.963
			v1.392h3.804H58.751z"/>
	</g>
</g>
</svg>
