<svg xmlns="http://www.w3.org/2000/svg" width="26.895" height="16.947" viewBox="0 0 26.895 16.947">
  <path id="video-camera" d="M26.615,1.512a.57.57,0,0,0-.564-.01L19.881,4.871V2.849A2.852,2.852,0,0,0,17.032,0H2.849A2.852,2.852,0,0,0,0,2.849V14.1a2.852,2.852,0,0,0,2.849,2.849H17.032A2.852,2.852,0,0,0,19.881,14.1V12.113l6.171,3.369a.57.57,0,0,0,.843-.5V2A.57.57,0,0,0,26.615,1.512ZM18.741,14.1a1.711,1.711,0,0,1-1.709,1.709H2.849A1.711,1.711,0,0,1,1.14,14.1V2.849A1.711,1.711,0,0,1,2.849,1.14H17.032a1.712,1.712,0,0,1,1.709,1.709Zm7.014-.076-5.874-3.207V6.169l5.874-3.207Zm0,0" fill="#fff"/>
</svg>
