<svg id="youtube_1_" data-name="youtube (1)" xmlns="http://www.w3.org/2000/svg" width="32.181" height="38.122" viewBox="0 0 32.181 38.122">
  <g id="Group_187" data-name="Group 187">
    <path id="Path_226" data-name="Path 226" d="M38.691,40.933a4.065,4.065,0,0,0-3.479-3.162,108.118,108.118,0,0,0-12.049-.446,108.151,108.151,0,0,0-12.051.446,4.064,4.064,0,0,0-3.477,3.162,34.456,34.456,0,0,0-.568,7.607,34.45,34.45,0,0,0,.561,7.607,4.064,4.064,0,0,0,3.478,3.162,108.126,108.126,0,0,0,12.05.446,108.049,108.049,0,0,0,12.051-.446,4.065,4.065,0,0,0,3.478-3.162,34.476,34.476,0,0,0,.563-7.607A34.5,34.5,0,0,0,38.691,40.933ZM16.246,42.822H13.917V55.2H11.753V42.822H9.467V40.795h6.779ZM22.122,55.2H20.176V54.028a3.117,3.117,0,0,1-2.222,1.318,1.193,1.193,0,0,1-1.253-.8,5.478,5.478,0,0,1-.172-1.6V44.467h1.944v7.9a6.055,6.055,0,0,0,.018.756c.047.3.194.455.455.455.39,0,.8-.3,1.229-.911v-8.2h1.946V55.2Zm7.388-3.221a8.573,8.573,0,0,1-.2,2.163,1.54,1.54,0,0,1-1.553,1.206,2.65,2.65,0,0,1-2.01-1.187V55.2H23.806v-14.4H25.75v4.7a2.634,2.634,0,0,1,2.01-1.164,1.538,1.538,0,0,1,1.553,1.211,8.241,8.241,0,0,1,.2,2.158Zm7.339-1.791H32.96v1.9c0,.993.325,1.49.993,1.49a.836.836,0,0,0,.869-.78,12.235,12.235,0,0,0,.044-1.318H36.85v.284c0,.627-.024,1.059-.042,1.253a2.771,2.771,0,0,1-.454,1.165A2.692,2.692,0,0,1,34,55.347a2.785,2.785,0,0,1-2.354-1.1,4.157,4.157,0,0,1-.624-2.524V47.965a4.177,4.177,0,0,1,.6-2.529,2.765,2.765,0,0,1,2.329-1.1,2.7,2.7,0,0,1,2.294,1.1,4.218,4.218,0,0,1,.6,2.529v2.222Z" transform="translate(-7.067 -21.633)" fill="#d83535"/>
    <path id="Path_227" data-name="Path 227" d="M69.633,58.163q-.975,0-.976,1.489v.993H70.6v-.993C70.6,58.66,70.276,58.163,69.633,58.163Z" transform="translate(-42.763 -33.71)" fill="#d83535"/>
    <path id="Path_228" data-name="Path 228" d="M52.475,58.163a1.393,1.393,0,0,0-.97.473v6.541a1.387,1.387,0,0,0,.97.479c.561,0,.846-.479.846-1.448V59.627C53.321,58.66,53.036,58.163,52.475,58.163Z" transform="translate(-32.822 -33.71)" fill="#d83535"/>
    <path id="Path_229" data-name="Path 229" d="M54.41,19.815a3.157,3.157,0,0,0,2.245-1.332v1.183h1.965V8.82H56.655v8.29c-.436.615-.848.92-1.242.92-.263,0-.418-.156-.461-.46a4.558,4.558,0,0,1-.024-.764V8.82H52.97V17.4a5.48,5.48,0,0,0,.174,1.613A1.207,1.207,0,0,0,54.41,19.815Z" transform="translate(-33.671 -5.112)" fill="#d83535"/>
    <path id="Path_230" data-name="Path 230" d="M20.087,8.66v5.895h2.179V8.66L24.888,0h-2.2L21.2,5.716,19.65,0H17.357c.46,1.349.938,2.7,1.4,4.055A35.854,35.854,0,0,1,20.087,8.66Z" transform="translate(-13.031)" fill="#d83535"/>
    <path id="Path_231" data-name="Path 231" d="M38.216,19.634a2.679,2.679,0,0,0,2.293-1.11,4.243,4.243,0,0,0,.61-2.551v-3.8a4.251,4.251,0,0,0-.61-2.555,2.914,2.914,0,0,0-4.581,0,4.215,4.215,0,0,0-.615,2.555v3.8a4.2,4.2,0,0,0,.615,2.551A2.679,2.679,0,0,0,38.216,19.634Zm-.938-7.853c0-1,.3-1.5.938-1.5s.937.5.937,1.5v4.562c0,1-.3,1.506-.937,1.506s-.938-.5-.938-1.506Z" transform="translate(-23.438 -4.931)" fill="#d83535"/>
  </g>
</svg>
