<svg xmlns="http://www.w3.org/2000/svg" width="13.699" height="15.683" viewBox="0 0 13.699 15.683">
  <g id="Group_4839" data-name="Group 4839" transform="translate(-6.279 -4.274)">
    <path id="Path_1897" data-name="Path 1897" d="M.756,0C.341,0,0,.2,0,.459v2.3c0,.254.341.459.756.459s.756-.2.756-.459V.459C1.513.2,1.174,0,.756,0Z" transform="translate(18.465 10.509)" fill="#2d9660"/>
    <path id="Path_1898" data-name="Path 1898" d="M.755,0C.339,0,0,.2,0,.457V8.315c0,.254.339.461.755.461s.758-.206.758-.461V.457C1.513.2,1.173,0,.755,0Z" transform="translate(15.419 7.729)" fill="#2d9660"/>
    <path id="Path_1899" data-name="Path 1899" d="M.759,0C.34,0,0,.182,0,.407V15.279c0,.223.34.4.759.4s.753-.181.753-.4V.407C1.513.182,1.176,0,.759,0Z" transform="translate(12.372 4.274)" fill="#2d9660"/>
    <path id="Path_1900" data-name="Path 1900" d="M.753,0C.337,0,0,.165,0,.365V7.484c0,.2.337.362.753.362s.759-.162.759-.362V.365C1.513.165,1.176,0,.753,0Z" transform="translate(9.326 8.193)" fill="#2d9660"/>
    <path id="Path_2038" data-name="Path 2038" d="M.756,0C.341,0,0,.2,0,.459v2.3c0,.254.341.459.756.459s.756-.2.756-.459V.459C1.513.2,1.174,0,.756,0Z" transform="translate(6.279 10.509)" fill="#2d9660"/>
  </g>
</svg>
